<?xml version="1.0" encoding="UTF-8" standalone="no"?>
<svg
   xmlns:dc="http://purl.org/dc/elements/1.1/"
   xmlns:cc="http://creativecommons.org/ns#"
   xmlns:rdf="http://www.w3.org/1999/02/22-rdf-syntax-ns#"
   xmlns:svg="http://www.w3.org/2000/svg"
   xmlns="http://www.w3.org/2000/svg"
   xmlns:xlink="http://www.w3.org/1999/xlink"
   xmlns:sodipodi="http://sodipodi.sourceforge.net/DTD/sodipodi-0.dtd"
   xmlns:inkscape="http://www.inkscape.org/namespaces/inkscape"
   version="1.1"
   width="1000"
   height="400"
   id="svg5123"
   sodipodi:docname="ibm.svg"
   inkscape:version="0.92.3 (2405546, 2018-03-11)">
  <metadata
     id="metadata5127">
    <rdf:RDF>
      <cc:Work
         rdf:about="">
        <dc:format>image/svg+xml</dc:format>
        <dc:type
           rdf:resource="http://purl.org/dc/dcmitype/StillImage" />
      </cc:Work>
    </rdf:RDF>
  </metadata>
  <sodipodi:namedview
     pagecolor="#ffffff"
     bordercolor="#666666"
     borderopacity="1"
     objecttolerance="10"
     gridtolerance="10"
     guidetolerance="10"
     inkscape:pageopacity="0"
     inkscape:pageshadow="2"
     inkscape:window-width="1920"
     inkscape:window-height="1027"
     id="namedview5125"
     showgrid="false"
     inkscape:zoom="0.283"
     inkscape:cx="100.70671"
     inkscape:cy="200"
     inkscape:window-x="0"
     inkscape:window-y="28"
     inkscape:window-maximized="1"
     inkscape:current-layer="svg5123" />
  <defs
     id="defs5119">
    <clipPath
       id="clipPath4">
      <path
         d="M 0,-1 V 82 H 55.937 V 318 H 1.523 v 82 H 196.172 V 318 H 140.234 V 82 h 54.414 V -1 Z m 554.023,1 v 82 h 55.938 v 236 h -54.414 v 82 H 694.258 V 171.838 l 82.656,228.084 1.68,0.04 81.172,-228.123 V 400 H 1000 V 318 H 944.062 V 82 h 54.415 V 0 H 842.148 L 777.422,182.887 711.875,0 Z"
         id="path5113" />
      <path
         d="m 222.227,0 v 82 h 55.937 v 130 h 215.313 v -24.928 c 0,0 18.011,-14.042 23.75,-27.367 L 528.75,133.85 c 0,0 5.352,-14.472 5.352,-27.405 l -2.305,-25.855 c 0,0 -3.616,-21.063 -9.922,-27.328 L 499.609,27.367 C 499.609,27.367 471.276,0 433.75,0 Z m 140.234,82 h 81.992 v 76 h -81.992 z"
         id="2" />
      <use
         xlink:href="#2"
         transform="matrix(1,0,0,-1,0,400)"
         id="use5116" />
    </clipPath>
  </defs>
  <path
     d="M 0,13.683 H 1030 V 66.915 H 0 m 0,53.232 h 975 v 53.242 H 0 v 53.222 h 975 v 53.222 H 0 m 0,53.242 h 1030 v 53.242 H 0"
     clip-path="url(#clipPath4)"
     style="fill:none;stroke:#442b75;stroke-width:27.37;stroke-opacity:1"
     id="path5121" />
</svg>
