<?xml version="1.0" standalone="no"?><!-- Generator: Gravit.io --><svg xmlns="http://www.w3.org/2000/svg" xmlns:xlink="http://www.w3.org/1999/xlink" style="isolation:isolate" viewBox="0 0 376 43.6" width="376" height="43.6"><defs><clipPath id="_clipPath_U0Hby1PSdwTSb83ctT52EIpuyofQoJlw"><rect width="376" height="43.6"/></clipPath></defs><g clip-path="url(#_clipPath_U0Hby1PSdwTSb83ctT52EIpuyofQoJlw)"><path d=" M 8.8 0 L 8.8 35.5 L 32 35.5 L 32 43.6 L 0 43.6 L 0 0 L 8.8 0 Z " fill="rgb(68,43,117)"/><path d=" M 45.2 37.3 C 41 33.1 39 27.9 39 21.8 C 39 15.6 41.1 10.4 45.2 6.3 C 49.4 2.1 54.5 0.1 60.7 0.1 C 66.9 0.1 72.1 2.2 76.2 6.3 C 80.4 10.5 82.4 15.6 82.4 21.8 C 82.4 28 80.3 33.2 76.2 37.3 C 72 41.5 66.9 43.5 60.7 43.5 C 54.6 43.6 49.4 41.5 45.2 37.3 Z  M 60.8 35.4 C 64.7 35.4 67.8 34.1 70.2 31.5 C 72.6 28.9 73.8 25.6 73.8 21.8 C 73.8 17.9 72.6 14.7 70.2 12.1 C 67.8 9.5 64.6 8.2 60.7 8.2 C 56.8 8.2 53.7 9.5 51.3 12.1 C 48.9 14.7 47.7 18 47.7 21.8 C 47.7 25.7 48.9 28.9 51.3 31.5 C 53.8 34.1 56.9 35.4 60.8 35.4 Z " fill="rgb(68,43,117)"/><path d=" M 138.2 0 L 146.9 0 L 146.9 43.6 L 138.2 43.6 L 138.2 0 Z " fill="rgb(68,43,117)"/><path d=" M 164.1 37.3 C 159.9 33.1 157.8 27.9 157.8 21.7 C 157.8 15.6 159.9 10.4 164.1 6.3 C 168.3 2.1 173.4 0 179.6 0 C 185.8 0 191.2 1.9 195.6 5.8 L 189.8 12.2 C 186.8 9.9 183.4 8.7 179.6 8.7 C 175.7 8.7 172.5 9.9 170.1 12.4 C 167.7 14.8 166.5 17.9 166.5 21.7 C 166.5 25.8 167.7 29 170.1 31.3 C 172.5 33.7 175.7 34.9 179.6 34.9 C 183.5 34.9 186.9 33.7 189.7 31.4 L 195.5 37.8 C 191.1 41.7 185.7 43.6 179.5 43.6 C 173.4 43.6 168.3 41.5 164.1 37.3 Z " fill="rgb(68,43,117)"/><path d=" M 259.2 36.9 L 256.6 43.6 L 247.3 43.6 L 264.7 0 L 273.4 0 L 290.8 43.6 L 281.5 43.6 L 278.9 36.9 M 279 36.9 L 259.2 36.9 M 262.7 28.2 L 275.8 28.2 M 275.8 28.2 L 269.3 11.6 L 262.7 28.2" fill="rgb(68,43,117)"/><path d=" M 290.9 0 L 294.1 8.1 L 308.6 8.1 L 308.6 43.6 L 317.4 43.6 L 317.4 8.1 L 331.9 8.1 L 331.9 0" fill="rgb(68,43,117)"/><path d=" M 223.5 20.5 L 231.6 28.6 L 231.6 33 C 229.9 34.2 227.5 34.9 224.4 34.9 C 220.5 34.9 217.3 33.7 214.9 31.3 C 212.5 28.9 211.3 25.7 211.3 21.7 C 211.3 17.9 212.5 14.8 214.9 12.4 C 217.3 10 220.4 8.8 224.4 8.7 C 228.2 8.7 231.6 9.9 234.6 12.2 L 240.4 5.8 C 235.9 1.9 230.6 0 224.4 0 C 218.2 0 213.1 2.1 208.9 6.3 C 204.7 10.5 202.6 15.6 202.6 21.7 C 202.6 28 204.7 33.2 208.9 37.3 C 213.1 41.5 218.2 43.5 224.4 43.6 C 230.6 43.6 236 41.7 240.4 37.8 L 240.4 20.5 L 231.7 20.5 L 223.5 20.5 Z " fill="rgb(68,43,117)"/><path d=" M 110.4 20.5 L 118.5 28.6 L 118.5 33 C 116.8 34.2 114.4 34.9 111.3 34.9 C 107.4 34.9 104.2 33.7 101.8 31.3 C 99.4 28.9 98.2 25.7 98.2 21.7 C 98.2 17.9 99.4 14.8 101.8 12.4 C 104.2 10 107.3 8.8 111.3 8.7 C 115.1 8.7 118.5 9.9 121.5 12.2 L 127.3 5.8 C 122.8 1.9 117.5 0 111.3 0 C 105.1 0 100 2.1 95.8 6.3 C 91.6 10.5 89.5 15.6 89.5 21.7 C 89.5 28 91.6 33.2 95.8 37.3 C 100 41.5 105.1 43.5 111.3 43.6 C 117.5 43.6 122.9 41.7 127.3 37.8 L 127.3 20.5 L 118.6 20.5 L 110.4 20.5 Z " fill="rgb(68,43,117)"/><path d=" M 372.8 35.4 L 358.9 35.4 L 358.9 35.4 L 351.5 35.4 L 351.5 25.5 L 369 25.5 L 369 17.4 L 351.5 17.4 L 351.5 8.1 L 358.9 8.1 L 372.7 8.1 L 372.8 8.1 L 376 0 L 374.8 0 L 342.8 0 L 342.8 43.6 L 374.8 43.6 L 374.8 43.6 L 376 43.6 L 372.8 35.4 Z " fill="rgb(68,43,117)"/></g></svg>