<?xml version="1.0" standalone="no"?><!-- Generator: Gravit.io --><svg xmlns="http://www.w3.org/2000/svg" xmlns:xlink="http://www.w3.org/1999/xlink" style="isolation:isolate" viewBox="0 0 332.904 67.845" width="332.904" height="67.845"><defs><clipPath id="_clipPath_MyZv0cvm7Q7m6D0wMf2KbntZALccrwBv"><rect width="332.904" height="67.845"/></clipPath></defs><g clip-path="url(#_clipPath_MyZv0cvm7Q7m6D0wMf2KbntZALccrwBv)"><path d=" M 15.287 22.657 C 13.683 25.129 13.091 28.096 13.091 31.063 C 13.091 37.902 16.47 44.096 23.734 44.096 C 30.745 44.096 34.207 38.397 34.207 31.639 C 34.207 26.86 33.025 23.151 30.575 20.844 C 27.873 18.372 24.832 18.29 22.974 18.454 C 19.257 18.702 17.061 19.938 15.287 22.657 L 15.287 22.657 Z  M 47.384 31.143 C 47.384 42.292 40.964 54.37 23.734 54.37 C 11.318 54.37 0 47.444 0 31.143 C 0 17.628 8.531 7.24 25.423 8.17 C 43.414 9.183 47.384 23.118 47.384 31.143" fill="rgb(68,43,117)"/><path d=" M 162.702 13.152 C 163.969 11.8 164.814 10.787 167.094 9.689 C 169.121 8.844 171.993 8.17 175.118 8.17 C 177.737 8.17 180.693 8.591 182.973 9.858 C 187.619 12.307 188.802 16.277 188.802 23.118 L 188.802 53.272 L 175.879 53.272 L 175.879 28.44 C 175.879 24.47 175.794 23.034 175.287 21.852 C 174.273 19.487 171.993 18.473 169.46 18.473 C 162.618 18.473 162.618 23.963 162.618 29.453 L 162.618 53.272 L 149.611 53.272 L 149.611 9.267 L 162.702 9.267 L 162.702 13.152 Z " fill="rgb(68,43,117)"/><path d=" M 130.511 25.582 C 130.258 23.724 129.919 21.274 128.061 19.332 C 126.456 17.727 124.007 16.882 121.726 16.882 C 118.601 16.882 116.406 18.403 115.139 19.754 C 113.365 21.697 112.942 23.724 112.52 25.582 L 130.511 25.582 Z  M 143.433 41.883 C 142.242 44.393 138.406 54.37 121.473 54.37 C 108.381 54.37 99.175 46.36 99.175 31.917 C 99.175 21.274 104.412 8.17 121.811 8.17 C 124.43 8.17 132.031 7.845 137.69 13.926 C 143.433 20.092 143.771 28.707 143.94 33.69 L 112.436 33.69 C 112.351 39.18 115.476 44.671 122.487 44.671 C 129.582 44.671 132.031 40.025 133.636 36.9 L 143.433 41.883" fill="rgb(68,43,117)"/><path d=" M 324.289 18.402 L 332.904 18.402 L 332.904 9.267 L 324.373 9.267 L 324.373 0 L 311.451 0 L 311.451 9.267 L 309.401 9.267 L 303.485 18.402 L 311.451 18.402 L 311.451 39.336 C 311.451 43.558 311.535 46.683 313.308 49.303 C 316.096 53.356 320.995 53.61 325.472 53.61 C 327.837 53.61 329.525 53.356 332.313 52.934 L 332.313 42.799 L 327.668 42.967 C 324.205 42.967 324.205 40.687 324.289 37.984 L 324.289 18.402 Z " fill="rgb(68,43,117)"/><path d=" M 195.274 0 L 208.196 0 L 208.196 9.267 L 221.627 9.267 L 215.712 18.402 L 208.112 18.402 L 208.112 37.984 C 208.027 40.687 208.027 42.967 211.491 42.967 L 216.137 42.799 L 216.137 52.934 C 213.348 53.356 211.66 53.61 209.295 53.61 C 204.818 53.61 199.919 53.356 197.132 49.303 C 195.358 46.683 195.274 43.558 195.274 39.336 L 195.274 0" fill="rgb(68,43,117)"/><path d=" M 250.157 25.582 C 249.903 23.724 249.565 21.274 247.707 19.332 C 246.102 17.727 243.653 16.882 241.373 16.882 C 238.248 16.882 236.052 18.403 234.785 19.754 C 233.011 21.697 232.589 23.724 232.166 25.582 L 250.157 25.582 Z  M 262.343 41.922 L 259.868 45.745 C 257.552 49.143 253.193 54.37 240.708 54.37 C 227.616 54.37 218.821 46.36 218.821 31.917 C 218.821 21.274 224.057 8.17 241.457 8.17 C 244.075 8.17 251.677 7.845 257.336 13.926 C 263.08 20.092 263.417 28.707 263.587 33.69 L 232.082 33.69 C 231.997 39.18 234.711 44.671 241.722 44.671 C 248.816 44.671 250.854 40.025 252.459 36.9 L 262.343 41.922" fill="rgb(68,43,117)"/><path d=" M 306.617 53.277 L 290.46 30.112 L 303.934 9.267 L 289.144 9.267 L 282.784 19.107 L 275.92 9.267 L 261.13 9.267 L 275.67 30.112 L 260.696 53.277 L 275.486 53.277 L 283.347 41.118 L 291.828 53.277 L 306.617 53.277 Z " fill="rgb(68,43,117)"/><path d=" M 74.071 18.323 C 71.706 18.323 69.257 19.267 67.399 21.625 C 65.54 23.905 64.696 27.442 64.696 31.294 C 64.696 36.482 66.217 39.626 67.821 41.434 C 69.321 43.126 71.537 44.096 73.649 44.096 C 79.984 44.096 82.771 37.425 82.771 30.979 C 82.771 25.555 81.166 19.817 75.845 18.559 C 75.254 18.402 74.662 18.323 74.071 18.323 L 74.071 18.323 Z  M 65.287 13.152 C 66.531 11.262 70.52 8.169 76.855 8.169 C 87.666 8.169 95.271 16.362 95.271 31.058 C 95.271 40.095 91.98 54.37 76.312 54.37 C 70.678 54.37 66.308 51.236 65.202 49.386 L 65.202 67.845 L 52.195 67.845 L 52.195 9.267 L 65.287 9.267 L 65.287 13.152 Z " fill="rgb(68,43,117)"/></g></svg>