<?xml version="1.0" encoding="UTF-8" standalone="no"?>
<svg
   xmlns:dc="http://purl.org/dc/elements/1.1/"
   xmlns:cc="http://creativecommons.org/ns#"
   xmlns:rdf="http://www.w3.org/1999/02/22-rdf-syntax-ns#"
   xmlns:svg="http://www.w3.org/2000/svg"
   xmlns="http://www.w3.org/2000/svg"
   xmlns:sodipodi="http://sodipodi.sourceforge.net/DTD/sodipodi-0.dtd"
   xmlns:inkscape="http://www.inkscape.org/namespaces/inkscape"
   version="1.1"
   width="52.859699"
   height="14.9565"
   id="svg852"
   sodipodi:docname="redhat.svg"
   inkscape:version="0.92.3 (2405546, 2018-03-11)">
  <metadata
     id="metadata858">
    <rdf:RDF>
      <cc:Work
         rdf:about="">
        <dc:format>image/svg+xml</dc:format>
        <dc:type
           rdf:resource="http://purl.org/dc/dcmitype/StillImage" />
        <dc:title></dc:title>
      </cc:Work>
    </rdf:RDF>
  </metadata>
  <defs
     id="defs856" />
  <sodipodi:namedview
     pagecolor="#ffffff"
     bordercolor="#666666"
     borderopacity="1"
     objecttolerance="10"
     gridtolerance="10"
     guidetolerance="10"
     inkscape:pageopacity="0"
     inkscape:pageshadow="2"
     inkscape:window-width="1920"
     inkscape:window-height="1027"
     id="namedview854"
     showgrid="false"
     fit-margin-top="0"
     fit-margin-left="0"
     fit-margin-right="0"
     fit-margin-bottom="0"
     inkscape:zoom="3.0430108"
     inkscape:cx="-27.941676"
     inkscape:cy="7.9382"
     inkscape:window-x="0"
     inkscape:window-y="28"
     inkscape:window-maximized="1"
     inkscape:current-layer="svg852" />
  <path
     d="M 0.083,7.8645 C 0.083,6.5105 0.054,5.5155 0,4.6155 h 2.214 l 0.096,1.921 h 0.072 c 0.498,-1.424 1.678,-2.15 2.769,-2.15 0.249,0 0.395,0.009 0.601,0.056 v 2.408 C 5.512,6.8025 5.288,6.7775 4.98,6.7775 c -1.218,0 -2.064,0.775 -2.293,1.934 -0.042,0.225 -0.066,0.496 -0.066,0.771 v 5.243 H 0.062 Z"
     style="fill:#442b75;fill-opacity:1"
     id="path839"
     inkscape:connector-curvature="0" />
  <path
     d="m 8.8399,10.3586 c 0.067,1.832 1.486,2.634 3.124,2.634 1.176,0 2.019,-0.185 2.791,-0.468 l 0.379,1.759 c -0.865,0.367 -2.066,0.64 -3.534,0.64 -3.285,0 -5.21,-2.027 -5.21,-5.125 0,-2.791 1.693,-5.43 4.947,-5.43 3.29,0 4.36,2.703 4.36,4.916 0,0.476 -0.042,0.856 -0.09,1.094 z m 4.448,-1.781 c 0.012,-0.937 -0.396,-2.464 -2.109,-2.464 -1.575,0 -2.23,1.429 -2.345,2.464 z"
     style="fill:#442b75;fill-opacity:1"
     id="path841"
     inkscape:connector-curvature="0" />
  <path
     d="m 24.1621,10.342 c 0,0.268 -0.02,0.518 -0.078,0.746 -0.257,1.107 -1.163,1.819 -2.209,1.819 -1.61,0 -2.532,-1.357 -2.532,-3.214 0,-1.876 0.913,-3.329 2.56,-3.329 1.151,0 1.975,0.812 2.2,1.796 0.044,0.207 0.059,0.463 0.059,0.667 z M 26.7181,0.721 24.1621,0 v 5.704 h -0.042 c -0.453,-0.747 -1.451,-1.317 -2.836,-1.317 -2.433,0 -4.551,2.012 -4.535,5.399 0,3.108 1.913,5.167 4.329,5.167 1.459,0 2.681,-0.695 3.285,-1.828 h 0.045 l 0.115,1.601 h 2.28 c -0.047,-0.688 -0.085,-1.8 -0.085,-2.835 z"
     style="fill:#442b75;fill-opacity:1"
     id="path843"
     inkscape:connector-curvature="0" />
  <path
     d="m 33.4824,4.3752 c -0.771,0 -1.462,0.222 -2.041,0.58 -0.602,0.352 -1.091,0.897 -1.383,1.459 h -0.041 v -4.731 l -1.001,-0.296 v 13.339 h 1.001 v -6.188 c 0,-0.411 0.031,-0.696 0.137,-0.997 0.432,-1.26 1.619,-2.292 3.054,-2.292 2.072,0 2.79,1.661 2.79,3.483 v 5.994 h 1.001 v -6.103 c 0,-3.769 -2.558,-4.248 -3.517,-4.248"
     style="fill:#442b75;fill-opacity:1"
     id="path845"
     inkscape:connector-curvature="0" />
  <path
     d="m 45.9854,12.3225 c 0,0.801 0.032,1.628 0.148,2.403 h -0.922 l -0.148,-1.449 h -0.047 c -0.491,0.78 -1.619,1.68 -3.228,1.68 -2.037,0 -2.986,-1.433 -2.986,-2.781 0,-2.335 2.064,-3.743 6.183,-3.699 v -0.27 c 0,-1.002 -0.195,-2.998 -2.591,-2.983 -0.886,0 -1.809,0.237 -2.542,0.754 l -0.318,-0.727 c 0.926,-0.627 2.055,-0.875 2.971,-0.875 2.921,0 3.48,2.192 3.48,4 z m -1,-3.005 c -2.206,-0.063 -5.117,0.271 -5.117,2.7 0,1.454 0.96,2.108 2.015,2.108 1.687,0 2.647,-1.044 2.997,-2.029 0.072,-0.215 0.105,-0.433 0.105,-0.607 z"
     style="fill:#442b75;fill-opacity:1"
     id="path847"
     inkscape:connector-curvature="0" />
  <path
     d="m 49.9727,2.3772 v 2.229 h 2.887 v 0.812 h -2.887 v 6.577 c 0,1.287 0.399,2.093 1.488,2.093 0.521,0 0.891,-0.068 1.15,-0.159 l 0.121,0.775 c -0.327,0.138 -0.786,0.243 -1.397,0.243 -0.739,0 -1.352,-0.232 -1.748,-0.716 -0.458,-0.532 -0.615,-1.381 -0.615,-2.414 v -6.399 h -1.708 v -0.812 h 1.708 v -1.86 z"
     style="fill:#442b75;fill-opacity:1"
     id="path849"
     inkscape:connector-curvature="0" />
</svg>
