<?xml version="1.0" standalone="no"?><!-- Generator: Gravit.io --><svg xmlns="http://www.w3.org/2000/svg" xmlns:xlink="http://www.w3.org/1999/xlink" style="isolation:isolate" viewBox="0 0 470.695 54.42" width="470.695" height="54.42"><defs><clipPath id="_clipPath_Bb8gUkICJOiXCreND0hkeAgF9qnjkwCb"><rect width="470.695" height="54.42"/></clipPath></defs><g clip-path="url(#_clipPath_Bb8gUkICJOiXCreND0hkeAgF9qnjkwCb)"><path d=" M 33.551 11.403 C 33.185 11.987 32.802 12.427 32.399 12.719 C 31.997 13.011 31.48 13.157 30.846 13.157 C 30.286 13.157 29.682 12.981 29.037 12.628 C 28.391 12.274 27.661 11.878 26.844 11.44 C 26.028 11.001 25.096 10.605 24.049 10.252 C 23.001 9.899 21.807 9.722 20.467 9.722 C 18.152 9.722 16.429 10.216 15.296 11.201 C 14.162 12.189 13.596 13.523 13.596 15.204 C 13.596 16.277 13.937 17.165 14.619 17.872 C 15.301 18.579 16.197 19.187 17.305 19.699 C 18.414 20.211 19.681 20.68 21.106 21.107 C 22.532 21.533 23.987 22.008 25.474 22.532 C 26.959 23.056 28.416 23.671 29.841 24.378 C 31.267 25.084 32.533 25.985 33.643 27.082 C 34.751 28.178 35.646 29.512 36.329 31.084 C 37.01 32.656 37.352 34.55 37.352 36.768 C 37.352 39.229 36.925 41.531 36.073 43.675 C 35.219 45.819 33.983 47.69 32.364 49.284 C 30.742 50.881 28.745 52.136 26.369 53.05 C 23.993 53.963 21.295 54.42 18.274 54.42 C 16.617 54.42 14.93 54.249 13.213 53.908 C 11.494 53.567 9.831 53.086 8.223 52.464 C 6.615 51.843 5.104 51.106 3.691 50.253 C 2.278 49.401 1.047 48.451 0 47.403 L 3.655 41.628 C 3.947 41.214 4.331 40.867 4.806 40.586 C 5.281 40.307 5.798 40.166 6.359 40.166 C 7.091 40.166 7.827 40.397 8.57 40.861 C 9.313 41.323 10.154 41.835 11.093 42.395 C 12.03 42.956 13.108 43.468 14.327 43.93 C 15.545 44.394 16.982 44.625 18.64 44.625 C 20.881 44.625 22.623 44.132 23.866 43.145 C 25.109 42.158 25.73 40.593 25.73 38.448 C 25.73 37.206 25.388 36.195 24.706 35.415 C 24.024 34.636 23.128 33.99 22.02 33.479 C 20.911 32.967 19.651 32.516 18.237 32.125 C 16.825 31.736 15.375 31.304 13.888 30.829 C 12.402 30.353 10.952 29.769 9.539 29.073 C 8.126 28.38 6.865 27.466 5.756 26.333 C 4.647 25.2 3.752 23.787 3.07 22.093 C 2.388 20.401 2.047 18.31 2.047 15.825 C 2.047 13.828 2.448 11.878 3.253 9.978 C 4.057 8.078 5.238 6.384 6.797 4.897 C 8.357 3.411 10.27 2.224 12.536 1.334 C 14.802 0.445 17.396 0 20.32 0 C 21.953 0 23.542 0.128 25.09 0.384 C 26.637 0.639 28.105 1.018 29.494 1.517 C 30.883 2.016 32.18 2.613 33.386 3.308 C 34.592 4.002 35.67 4.787 36.621 5.665 L 33.551 11.403" fill="rgb(68,43,117)" fill-opacity="0.94117647"/><path d=" M 86.764 11.403 C 86.398 11.987 86.015 12.427 85.613 12.719 C 85.21 13.011 84.693 13.157 84.059 13.157 C 83.498 13.157 82.895 12.981 82.25 12.628 C 81.604 12.274 80.874 11.878 80.057 11.44 C 79.241 11.001 78.308 10.605 77.262 10.252 C 76.214 9.899 75.019 9.722 73.68 9.722 C 71.365 9.722 69.641 10.216 68.508 11.201 C 67.375 12.189 66.808 13.523 66.808 15.204 C 66.808 16.277 67.149 17.165 67.832 17.872 C 68.514 18.579 69.409 19.187 70.518 19.699 C 71.627 20.211 72.894 20.68 74.319 21.107 C 75.745 21.533 77.201 22.008 78.687 22.532 C 80.172 23.056 81.629 23.671 83.054 24.378 C 84.48 25.084 85.746 25.985 86.856 27.082 C 87.964 28.178 88.859 29.512 89.542 31.084 C 90.223 32.656 90.565 34.55 90.565 36.768 C 90.565 39.229 90.138 41.531 89.286 43.675 C 88.432 45.819 87.196 47.69 85.576 49.284 C 83.955 50.881 81.958 52.136 79.582 53.05 C 77.206 53.963 74.508 54.42 71.487 54.42 C 69.83 54.42 68.143 54.249 66.425 53.908 C 64.707 53.567 63.044 53.086 61.436 52.464 C 59.828 51.843 58.317 51.106 56.904 50.253 C 55.491 49.401 54.26 48.451 53.213 47.403 L 56.868 41.628 C 57.16 41.214 57.544 40.867 58.019 40.586 C 58.494 40.307 59.011 40.166 59.572 40.166 C 60.303 40.166 61.04 40.397 61.783 40.861 C 62.526 41.323 63.367 41.835 64.305 42.395 C 65.243 42.956 66.321 43.468 67.54 43.93 C 68.758 44.394 70.195 44.625 71.852 44.625 C 74.094 44.625 75.836 44.132 77.079 43.145 C 78.321 42.158 78.943 40.593 78.943 38.448 C 78.943 37.206 78.601 36.195 77.919 35.415 C 77.237 34.636 76.341 33.99 75.233 33.479 C 74.124 32.967 72.864 32.516 71.451 32.125 C 70.037 31.736 68.587 31.304 67.101 30.829 C 65.615 30.353 64.165 29.769 62.752 29.073 C 61.339 28.38 60.078 27.466 58.969 26.333 C 57.86 25.2 56.965 23.787 56.282 22.093 C 55.601 20.401 55.26 18.31 55.26 15.825 C 55.26 13.828 55.661 11.878 56.466 9.978 C 57.269 8.078 58.451 6.384 60.01 4.897 C 61.57 3.411 63.483 2.224 65.748 1.334 C 68.015 0.445 70.609 0 73.533 0 C 75.165 0 76.755 0.128 78.303 0.384 C 79.851 0.639 81.318 1.018 82.707 1.517 C 84.096 2.016 85.393 2.613 86.599 3.308 C 87.805 4.002 88.883 4.787 89.834 5.665 L 86.764 11.403 Z " fill="rgb(68,43,117)" fill-opacity="0.94117647"/><path d=" M 146.227 27.192 C 146.227 24.56 145.885 22.185 145.203 20.065 C 144.521 17.945 143.54 16.148 142.261 14.674 C 140.981 13.2 139.416 12.067 137.564 11.275 C 135.713 10.484 133.605 10.087 131.242 10.087 L 122.982 10.087 L 122.982 44.333 L 131.242 44.333 C 133.605 44.333 135.713 43.936 137.564 43.145 C 139.416 42.353 140.981 41.221 142.261 39.745 C 143.54 38.271 144.521 36.474 145.203 34.355 C 145.885 32.235 146.227 29.848 146.227 27.192 L 146.227 27.192 Z  M 158.872 27.192 C 158.872 31.042 158.208 34.593 156.88 37.846 C 155.552 41.098 153.683 43.912 151.271 46.289 C 148.859 48.663 145.952 50.516 142.553 51.843 C 139.155 53.171 135.384 53.835 131.242 53.835 L 110.555 53.835 L 110.555 0.584 L 131.242 0.584 C 135.384 0.584 139.155 1.255 142.553 2.595 C 145.952 3.935 148.859 5.787 151.271 8.151 C 153.683 10.513 155.552 13.321 156.88 16.575 C 158.208 19.828 158.872 23.367 158.872 27.192" fill="rgb(68,43,117)" fill-opacity="0.94117647"/><path d=" M 184.035 2.248 C 184.217 2.333 184.417 2.522 184.637 2.814 L 218.152 47.622 C 218.079 46.891 218.043 46.184 218.043 45.502 L 218.043 2.12 L 221.295 2.12 L 221.295 53.835 L 219.541 53.835 C 219.224 53.835 218.961 53.781 218.755 53.671 C 218.548 53.56 218.347 53.373 218.152 53.105 L 184.564 8.26 C 184.637 8.991 184.673 9.673 184.673 10.307 L 184.673 53.835 L 181.385 53.835 L 181.385 2.12 L 183.249 2.12 C 183.589 2.12 183.852 2.162 184.035 2.248" fill="rgb(68,43,117)" fill-opacity="0.94117647"/><path d=" M 291.357 27.959 C 291.357 24.353 290.857 21.112 289.859 18.237 C 288.859 15.362 287.445 12.925 285.619 10.928 C 283.791 8.93 281.599 7.401 279.04 6.341 C 276.483 5.281 273.656 4.751 270.561 4.751 C 267.491 4.751 264.677 5.281 262.119 6.341 C 259.56 7.401 257.361 8.93 255.521 10.928 C 253.681 12.925 252.256 15.362 251.245 18.237 C 250.235 21.112 249.728 24.353 249.728 27.959 C 249.728 31.591 250.235 34.836 251.245 37.7 C 252.256 40.563 253.681 42.993 255.521 44.99 C 257.361 46.989 259.56 48.512 262.119 49.559 C 264.677 50.607 267.491 51.131 270.561 51.131 C 273.656 51.131 276.483 50.607 279.04 49.559 C 281.599 48.512 283.791 46.989 285.619 44.99 C 287.445 42.993 288.859 40.563 289.859 37.7 C 290.857 34.836 291.357 31.591 291.357 27.959 Z  M 295.231 27.959 C 295.231 31.955 294.633 35.58 293.441 38.833 C 292.247 42.085 290.564 44.862 288.396 47.165 C 286.227 49.468 283.627 51.247 280.593 52.501 C 277.56 53.756 274.216 54.383 270.561 54.383 C 266.907 54.383 263.568 53.756 260.547 52.501 C 257.525 51.247 254.931 49.468 252.763 47.165 C 250.593 44.862 248.912 42.085 247.719 38.833 C 246.525 35.58 245.928 31.955 245.928 27.959 C 245.928 23.988 246.525 20.375 247.719 17.123 C 248.912 13.87 250.593 11.092 252.763 8.79 C 254.931 6.487 257.525 4.703 260.547 3.435 C 263.568 2.169 266.907 1.535 270.561 1.535 C 274.216 1.535 277.56 2.162 280.593 3.417 C 283.627 4.672 286.227 6.457 288.396 8.771 C 290.564 11.086 292.247 13.87 293.441 17.123 C 294.633 20.375 295.231 23.988 295.231 27.959" fill="rgb(68,43,117)" fill-opacity="0.94117647"/><path d=" M 359.555 27.959 C 359.555 24.353 359.055 21.137 358.056 18.31 C 357.056 15.484 355.644 13.097 353.816 11.147 C 351.989 9.198 349.796 7.711 347.237 6.688 C 344.679 5.665 341.852 5.153 338.759 5.153 L 323.627 5.153 L 323.627 50.801 L 338.759 50.801 C 341.852 50.801 344.679 50.29 347.237 49.266 C 349.796 48.243 351.989 46.757 353.816 44.808 C 355.644 42.858 357.056 40.471 358.056 37.644 C 359.055 34.818 359.555 31.591 359.555 27.959 L 359.555 27.959 Z  M 363.429 27.959 C 363.429 31.955 362.832 35.549 361.637 38.742 C 360.444 41.933 358.763 44.649 356.595 46.891 C 354.425 49.133 351.825 50.851 348.791 52.045 C 345.757 53.239 342.413 53.835 338.759 53.835 L 319.863 53.835 L 319.863 2.12 L 338.759 2.12 C 342.413 2.12 345.757 2.717 348.791 3.911 C 351.825 5.105 354.425 6.822 356.595 9.063 C 358.763 11.306 360.444 14.023 361.637 17.214 C 362.832 20.406 363.429 23.988 363.429 27.959 Z " fill="rgb(68,43,117)" fill-opacity="0.94117647"/><path d=" M 419.127 2.12 L 419.127 5.227 L 391.897 5.227 L 391.897 26.132 L 414.557 26.132 L 414.557 29.166 L 391.897 29.166 L 391.897 50.729 L 419.2 50.729 L 419.127 53.835 L 388.133 53.835 L 388.133 2.12 L 419.127 2.12 Z " fill="rgb(68,43,117)" fill-opacity="0.94117647"/><path d=" M 468.356 8.406 C 468.136 8.821 467.82 9.027 467.405 9.027 C 467.089 9.027 466.68 8.802 466.181 8.351 C 465.681 7.901 465.005 7.401 464.153 6.853 C 463.3 6.305 462.233 5.799 460.955 5.336 C 459.675 4.873 458.099 4.642 456.223 4.642 C 454.345 4.642 452.695 4.91 451.271 5.446 C 449.844 5.982 448.651 6.713 447.688 7.639 C 446.724 8.565 445.995 9.636 445.496 10.855 C 444.996 12.073 444.745 13.353 444.745 14.692 C 444.745 16.446 445.116 17.896 445.86 19.042 C 446.604 20.186 447.584 21.161 448.803 21.966 C 450.02 22.769 451.403 23.445 452.951 23.994 C 454.499 24.542 456.088 25.084 457.721 25.62 C 459.352 26.156 460.943 26.747 462.491 27.392 C 464.037 28.039 465.42 28.849 466.637 29.823 C 467.856 30.797 468.836 31.998 469.58 33.424 C 470.324 34.848 470.695 36.622 470.695 38.742 C 470.695 40.909 470.324 42.95 469.58 44.862 C 468.836 46.775 467.759 48.438 466.345 49.851 C 464.932 51.265 463.203 52.38 461.156 53.196 C 459.109 54.012 456.771 54.42 454.139 54.42 C 450.727 54.42 447.791 53.817 445.331 52.611 C 442.869 51.404 440.713 49.755 438.861 47.658 L 439.885 46.05 C 440.177 45.685 440.517 45.502 440.908 45.502 C 441.127 45.502 441.407 45.649 441.749 45.941 C 442.089 46.234 442.503 46.593 442.992 47.019 C 443.479 47.446 444.063 47.908 444.745 48.408 C 445.428 48.908 446.22 49.37 447.121 49.796 C 448.023 50.223 449.057 50.583 450.228 50.874 C 451.397 51.167 452.724 51.313 454.212 51.313 C 456.259 51.313 458.085 51.003 459.693 50.381 C 461.301 49.76 462.66 48.913 463.769 47.842 C 464.877 46.769 465.724 45.497 466.309 44.023 C 466.893 42.549 467.187 40.971 467.187 39.29 C 467.187 37.461 466.815 35.958 466.071 34.775 C 465.328 33.594 464.347 32.607 463.129 31.814 C 461.911 31.024 460.528 30.36 458.981 29.823 C 457.435 29.287 455.844 28.763 454.212 28.252 C 452.579 27.74 450.989 27.168 449.443 26.534 C 447.895 25.901 446.512 25.091 445.293 24.103 C 444.075 23.117 443.095 21.886 442.352 20.412 C 441.609 18.938 441.237 17.092 441.237 14.875 C 441.237 13.145 441.565 11.475 442.223 9.868 C 442.883 8.26 443.844 6.841 445.111 5.61 C 446.379 4.38 447.944 3.393 449.808 2.649 C 451.671 1.907 453.797 1.535 456.185 1.535 C 458.865 1.535 461.272 1.961 463.403 2.814 C 465.536 3.667 467.479 4.971 469.232 6.724 L 468.356 8.406" fill="rgb(68,43,117)" fill-opacity="0.94117647"/></g></svg>