<?xml version="1.0" encoding="UTF-8" standalone="no"?>
<!-- Created with Inkscape (http://www.inkscape.org/) -->
<svg xmlns:svg="http://www.w3.org/2000/svg" xmlns="http://www.w3.org/2000/svg" version="1.0" width="440" height="293.04999" viewBox="0 0 1295 855.27" id="svg2" xml:space="preserve"><defs id="defs130"/>
	
		<g transform="matrix(0.9182664,0,0,0.9182669,54.424751,43.34985)" id="レイヤー_1">
			<g id="g7">
				<polygon points="167.5,709.799 159.497,714.799 159.497,565.795 167.5,570.795 167.5,709.799 " style="fill:#231815" id="polygon9"/>
				<polygon points="287.998,779.799 287.998,788.793 159.497,714.799 167.5,709.799 287.998,779.799 " style="fill:#231815" id="polygon11"/>
				<polygon points="408.5,709.799 412.5,712.299 412.5,716.792 287.998,788.793 287.998,779.799 408.5,709.799 " style="fill:#231815" id="polygon13"/>
				
					<rect width="8.0629997" height="114.237" x="333.46799" y="668.677" transform="matrix(-0.4959,-0.8684,0.8684,-0.4959,-125.3679,1378.8181)" style="fill:#231815" id="rect15"/> 
				<polygon points="408.5,570.795 412.5,568.295 416.499,570.795 416.499,709.799 412.5,712.299 408.5,709.799 408.5,570.795 " style="fill:#231815" id="polygon17"/>
				<polygon points="287.998,500.795 287.998,491.792 407.998,561.293 412.5,568.295 408.5,570.795 287.998,500.795 " style="fill:#231815" id="polygon19"/>
				<polygon points="167.5,570.795 159.497,565.795 287.998,491.792 287.998,500.795 167.5,570.795 " style="fill:#231815" id="polygon21"/>
				<polygon points="537.5,779.799 537.5,788.793 412.5,716.792 412.5,712.299 416.499,709.799 537.5,779.799 " style="fill:#231815" id="polygon23"/>
				<polygon points="658.002,709.799 665.996,714.799 537.5,788.793 537.5,779.799 658.002,709.799 " style="fill:#231815" id="polygon25"/>
				<polygon points="658.002,570.795 661.992,568.295 665.996,570.795 665.996,714.799 658.002,709.799 658.002,570.795 " style="fill:#231815" id="polygon27"/>
				<polygon points="537.5,500.795 537.5,496.293 541.499,493.793 656.997,560.795 661.992,568.295 658.002,570.795 537.5,500.795 " style="fill:#231815" id="polygon29"/>
				<polygon points="416.499,570.795 412.5,568.295 417.5,561.293 533.5,493.793 537.5,496.293 537.5,500.795 416.499,570.795 " style="fill:#231815" id="polygon31"/>
				<polygon points="783.007,493.793 786.992,496.293 787.5,500.795 665.996,570.795 661.992,568.295 666.992,560.795 783.007,493.793 " style="fill:#231815" id="polygon33"/>
				<polygon points="783.007,354.794 786.992,352.294 790.996,355.297 790.996,493.295 786.992,496.293 783.007,493.793 783.007,354.794 " style="fill:#231815" id="polygon35"/>
				<polygon points="661.992,284.794 661.992,275.795 782.5,345.297 786.992,352.294 783.007,354.794 661.992,284.794 " style="fill:#231815" id="polygon37"/>
				<polygon points="541.499,354.794 537.5,352.294 537.5,347.294 661.992,275.795 661.992,284.794 541.499,354.794 " style="fill:#231815" id="polygon39"/>
				<polygon points="541.499,493.793 537.5,496.293 533.5,493.793 533.5,354.794 537.5,352.294 541.499,354.794 541.499,493.793 " style="fill:#231815" id="polygon41"/>
				<polygon points="922.5,536.293 925.507,545.297 787.5,500.795 786.992,496.293 790.996,493.295 922.5,536.293 " style="fill:#231815" id="polygon43"/>
				<polygon points="1003.496,424.296 1013.496,424.296 925.507,545.297 922.5,536.293 1003.496,424.296 " style="fill:#231815" id="polygon45"/>
				<polygon points="922.5,312.294 924.003,307.797 928.496,307.294 1013.496,424.296 1003.496,424.296 922.5,312.294 " style="fill:#231815" id="polygon47"/>
				<polygon points="790.996,355.297 786.992,352.294 791.503,346.796 920.507,304.794 924.003,307.797 922.5,312.294 790.996,355.297 " style="fill:#231815" id="polygon49"/>
				<polygon points="771.992,208.295 786.992,208.295 801.992,208.295 791.503,346.796 786.992,352.294 782.5,345.297 771.992,208.295 " style="fill:#231815" id="polygon51"/>
				<text transform="translate(625.9985,463.2974)" id="text53"><tspan x="0" y="0" style="font-size:100px;fill:#231815;font-family:ArialMT" id="tspan55">H</tspan></text>

				<polygon points="646.997,475.297 676.992,475.297 666.992,560.795 661.992,568.295 656.997,560.795 646.997,475.297 " style="fill:#231815" id="polygon57"/>
				<polygon points="397.5,424.296 412.5,424.296 427.5,424.296 417.5,561.293 412.5,568.295 407.998,561.293 397.5,424.296 " style="fill:#231815" id="polygon59"/>
				<polygon points="953.496,167.294 982.5,175.297 928.496,307.294 924.003,307.797 920.507,304.794 953.496,167.294 " style="fill:#231815" id="polygon61"/>
				<text transform="translate(750.9985,679.2905)" id="text63"><tspan x="0" y="0" style="font-size:100px;fill:#231815;font-family:ArialMT" id="tspan65">H</tspan></text>

				<polygon points="801.992,596.293 771.992,596.293 773.007,588.295 800.507,588.295 801.992,596.293 " style="fill:#231815" id="polygon67"/>
				<polygon points="798.496,572.299 775,572.299 775.996,564.292 797.5,564.292 798.496,572.299 " style="fill:#231815" id="polygon69"/>
				<polygon points="795,548.295 778.496,548.295 779.492,540.297 794.003,540.297 795,548.295 " style="fill:#231815" id="polygon71"/>
				<polygon points="791.992,524.292 781.503,524.292 783.007,516.293 790.996,516.293 791.992,524.292 " style="fill:#231815" id="polygon73"/>
				<text transform="translate(501.501,679.2905)" id="text75"><tspan x="0" y="0" style="font-size:100px;fill:#231815;font-family:ArialMT" id="tspan77">H</tspan></text>

				<polygon points="552.5,596.293 522.5,596.293 523.5,588.295 551.499,588.295 552.5,596.293 " style="fill:#231815" id="polygon79"/>
				<polygon points="548.999,572.299 525.498,572.299 526.997,564.292 547.998,564.292 548.999,572.299 " style="fill:#231815" id="polygon81"/>
				<polygon points="546,548.295 528.999,548.295 530,540.297 544.497,540.297 546,548.295 " style="fill:#231815" id="polygon83"/>
				<polygon points="542.5,524.292 532.5,524.292 533.5,516.293 541.499,516.293 542.5,524.292 " style="fill:#231815" id="polygon85"/>
				<text transform="translate(0,822.8003)" id="text87"><tspan x="0" y="0" style="font-size:100px;fill:#231815;font-family:ArialMT" id="tspan89">O</tspan></text>

				
					<rect width="8.0629997" height="105.059" x="126.466" y="693.51501" transform="matrix(0.4959,0.8684,-0.8684,0.4959,713.6095,262.7305)" style="fill:#231815" id="rect91"/> 
				<polygon points="73.999,753.295 70,746.792 161.499,693.793 165.498,700.795 73.999,753.295 " style="fill:#231815" id="polygon93"/>
				<text transform="translate(300.9932,319.7979)" id="text95"><tspan x="0" y="0" style="font-size:100px;fill:#231815;font-family:ArialMT" id="tspan97">HO</tspan></text>

				<polygon points="446.499,317.294 461.499,291.298 537.5,347.294 537.5,352.294 533.5,354.794 446.499,317.294 " style="fill:#231815" id="polygon99"/>
				<polygon points="1110,167.294 1114.492,175.297 982.5,175.297 953.496,167.294 1110,167.294 " style="fill:#231815" id="polygon101"/>
				<text transform="translate(856.9976,85.7969)" id="text103"><tspan x="0" y="0" style="font-size:100px;fill:#231815;font-family:ArialMT" id="tspan105">O</tspan></text>

				<polygon points="906.992,99.296 914.003,95.297 965.996,185.795 959.492,189.794 906.992,99.296 " style="fill:#231815" id="polygon107"/>
				
					<rect width="8.0740004" height="100.346" x="953.96002" y="77.624001" transform="matrix(-0.8684,0.4959,-0.4959,-0.8684,1853.2869,-236.2748)" style="fill:#231815" id="rect109"/> 
				<text transform="translate(1144.9995,86.293)" id="text111"><tspan x="0" y="0" style="font-size:100px;fill:#231815;font-family:ArialMT" id="tspan113">OH</tspan></text>

				<polygon points="1154.492,89.794 1161.503,93.798 1114.492,175.297 1110,167.294 1154.492,89.794 " style="fill:#231815" id="polygon115"/>
				<text transform="translate(1028.4985,346.79)" id="text117"><tspan x="0" y="0" style="font-size:100px;fill:#231815;font-family:ArialMT" id="tspan119">OH</tspan></text>

				<polygon points="1020.996,292.797 1020.996,322.797 1013.007,321.796 1013.007,293.798 1020.996,292.797 " style="fill:#231815" id="polygon121"/>
				<polygon points="998.007,296.298 998.007,319.296 990,318.295 990,297.294 998.007,296.298 " style="fill:#231815" id="polygon123"/>
				<polygon points="975,299.296 975,316.298 966.992,315.297 966.992,300.297 975,299.296 " style="fill:#231815" id="polygon125"/>
				<polygon points="951.992,302.797 951.992,312.797 944.003,311.796 944.003,303.798 951.992,302.797 " style="fill:#231815" id="polygon127"/>
			</g>
		</g>
	</svg>