<svg xmlns="http://www.w3.org/2000/svg" width="164.267" height="196.267" viewBox="0 0 154 183.99995"><g fill="#fe715d" fill-rule="evenodd" stroke="#fff" stroke-width="4" stroke-linecap="round" stroke-linejoin="round" stroke-miterlimit="3.933"><path d="M32 107V47l30-10v55zM32 87l30-10z"/><path style="isolation:auto;mix-blend-mode:normal" d="M77 182V17l30-10v165z" color="#000" overflow="visible"/><path d="M77 17l30-10-30-5-30 10zM32 47l30-10-30-5L2 42zM122 152V92l30-10v55z"/><path style="isolation:auto;mix-blend-mode:normal" d="M77 114.5l30-10z" color="#000" overflow="visible"/><path d="M122 92l30-10-30-5-30 10z"/><path d="M47 12v77.5L32 87V47L2 42v70l45 7.5V177l30 5v-37.5l45 7.5V92l-30-5v30l-15-2.5V17z"/></g></svg>