<svg xmlns="http://www.w3.org/2000/svg" width="217.652" height="259.882" viewBox="0 0 204.04848 243.63966"><g fill="#fe715d" fill-rule="evenodd" stroke-width="4.049" stroke-linecap="round" stroke-linejoin="round" stroke-miterlimit="3.933"><path d="M42.024 72.024l40-15-40-10-40 15z" stroke="#feffff"/><path style="isolation:auto;mix-blend-mode:normal" d="M42.024 147.024v-75l40-15v80z" color="#000" overflow="visible" stroke="#fff"/><path d="M82.024 112.024l40-15-40-10-40 15z" stroke="#feffff"/><path style="isolation:auto;mix-blend-mode:normal" d="M102.024 241.615V27.025l40-15-.044 216.557z" color="#000" overflow="visible" stroke="#fff"/><path d="M102.024 27.024l40-15-40-10-40 15zM162.024 117.024l40-15-40-10-40 15zM142.024 162.024l40-15-40-10-40 15z" stroke="#feffff"/><path style="isolation:auto;mix-blend-mode:normal" d="M62.024 17.476v90l-20-5v-30l-40-10v75l40 10 20 5v80l40 9.59v-44.59l60 15v-95l-40-10-.012 49.996-19.988-4.996V27.024l-40-9.548z" color="#000" overflow="visible" stroke="#fff"/><path style="isolation:auto;mix-blend-mode:normal" d="M162.024 212.024v-95l40-15-.111 94.427z" color="#000" overflow="visible" stroke="#feffff"/></g></svg>