<svg xmlns="http://www.w3.org/2000/svg" width="213.337" height="254.17" viewBox="0 0 200.00299 238.28472"><g fill="#feffff" fill-rule="evenodd" stroke="#fe715d" stroke-width="4.049" stroke-linecap="round" stroke-linejoin="round" stroke-miterlimit="3.933"><path d="M42.629 68.21l40-15-40-10-40 15z"/><path style="isolation:auto;mix-blend-mode:normal" d="M42.629 143.21v-75l40-15v80z" color="#000" overflow="visible"/><path d="M102.629 23.21l40-15-40-10-40 15zM82.629 108.21l40-15-40-10-40 15z"/><path style="isolation:auto;mix-blend-mode:normal" d="M102.629 237.801V23.211l40-15-.044 216.557z" color="#000" overflow="visible"/><path d="M162.629 113.21l40-15-40-10-40 15zM142.629 158.21l40-15-40-10-40 15z"/><path style="isolation:auto;mix-blend-mode:normal" d="M162.629 208.21v-95l40-15-.111 94.427zM162.629 208.21v-95l-40-10-.023 94.166zM42.629 143.21v-75l-40-10v75zM102.629 237.801V22.76l-40-9.55v215z" color="#000" overflow="visible"/><path style="isolation:auto;mix-blend-mode:normal" d="M82.629 188.21l80 20v-45l-80-20zM2.629 133.21l80 20v-45l-80-20z" color="#000" overflow="visible"/></g></svg>