<svg xmlns="http://www.w3.org/2000/svg" width="213.337" height="254.17" viewBox="0 0 200.00299 238.28472"><g fill="#feffff" fill-rule="evenodd" stroke="#fe715d" stroke-width="4.049" stroke-linecap="round" stroke-linejoin="round" stroke-miterlimit="3.933"><path d="M42.629 68.21l40-15-40-10-40 15z"/><path style="isolation:auto;mix-blend-mode:normal" d="M42.629 143.21v-75l40-15v80z" color="#000" overflow="visible"/><path d="M82.629 108.21l40-15-40-10-40 15z"/><path style="isolation:auto;mix-blend-mode:normal" d="M102.629 237.801V23.211l40-15-.044 216.557z" color="#000" overflow="visible"/><path d="M102.629 23.21l40-15-40-10-40 15zM162.629 113.21l40-15-40-10-40 15zM142.629 158.21l40-15-40-10-40 15z"/><path style="isolation:auto;mix-blend-mode:normal" d="M62.629 13.21v90l-20-5v-30l-40-10v75l40 10 20 5v80l40 9.59v-44.59l60 15v-95l-40-10-.012 49.997-19.988-4.996V22.76l-40-9.55zM162.629 208.21v-95l40-15-.111 94.427z" color="#000" overflow="visible"/></g></svg>