<svg xmlns="http://www.w3.org/2000/svg" width="200" height="238.961" viewBox="0 0 200 238.96096"><g fill="#fe715d" fill-rule="evenodd" stroke="#fff" stroke-width="5.195" stroke-linecap="round" stroke-linejoin="round" stroke-miterlimit="3.933"><path d="M41.558 138.961V61.039L80.52 48.052v71.429zM41.558 112.987L80.52 100z"/><path style="isolation:auto;mix-blend-mode:normal" d="M100 236.364V22.078L138.961 9.09v214.286z" color="#000" overflow="visible"/><path d="M100 22.078L138.961 9.09 100 2.597 61.039 15.584zM41.558 61.039L80.52 48.052l-38.96-6.494L2.596 54.545zM158.442 197.403V119.48l38.96-12.987v71.428z"/><path style="isolation:auto;mix-blend-mode:normal" d="M100 148.701l38.961-12.987z" color="#000" overflow="visible"/><path d="M158.442 119.48l38.96-12.987-38.96-6.493-38.961 12.987z"/><path d="M61.039 15.584v100.65l-19.48-3.247V61.039L2.596 54.545v90.91l58.442 9.74v74.675L100 236.364v-48.702l58.442 9.74v-77.921l-38.961-6.494v38.961L100 148.701V22.078z"/></g></svg>