<svg xmlns="http://www.w3.org/2000/svg" width="213.337" height="254.17" viewBox="0 0 200.00299 238.28472"><g fill="#fe715d" fill-rule="evenodd" stroke="#fff" stroke-width="4" stroke-linecap="round" stroke-linejoin="round" stroke-miterlimit="3.933"><path style="isolation:auto;mix-blend-mode:normal" d="M100.384 236.285V21.524l39.048-13.016v214.761z" color="#000" overflow="visible"/><path d="M41.048 84.155l39.047-13.016-39.047-6.508L2 77.647z"/><path style="isolation:auto;mix-blend-mode:normal" d="M41.048 142.726V84.155l39.047-13.016v58.571z" color="#000" overflow="visible"/><path style="isolation:auto;mix-blend-mode:normal" d="M100.384 236.285V21.524l-39.047-6.508v208.253z" color="#000" overflow="visible"/><path d="M100.384 21.524l39.048-13.016L100.384 2 61.337 15.016zM158.956 125.65l39.047-13.015-39.047-6.508-39.048 13.015z"/><path style="isolation:auto;mix-blend-mode:normal" d="M158.956 184.222V125.65l39.047-13.015v58.57zM158.956 184.222V125.65l-39.048-6.508v56.797zM41.048 142.726V84.155L2 77.647v56.796z" color="#000" overflow="visible"/></g></svg>