<svg xmlns="http://www.w3.org/2000/svg" style="isolation:isolate" viewBox="0 0 250 280" width="250" height="280"><g style="isolation:isolate" fill="#FFF" stroke-width="4" stroke="#000" stroke-miterlimit="3"><path d="M100 60v90l-40 20V80l40-20z" vector-effect="non-scaling-stroke" stroke-linejoin="round" stroke-linecap="round"/><path d="M10 70l40-20 50 10-40 20-50-10z" vector-effect="non-scaling-stroke" stroke-linecap="square"/></g><g style="isolation:isolate" fill="#FFF" stroke-width="4" stroke="#000" stroke-miterlimit="3"><path d="M170 20v230l-40 20V40l40-20z" vector-effect="non-scaling-stroke" stroke-linejoin="round" stroke-linecap="round"/><path d="M80 30l40-20 50 10-40 20-50-10z" vector-effect="non-scaling-stroke" stroke-linecap="square"/></g><g style="isolation:isolate" fill="#FFF" stroke-linecap="square" stroke-miterlimit="3"><path d="M120 180l40-20 50 10-40 20-50-10z" vector-effect="non-scaling-stroke" stroke-width="4.3" stroke="#FE715D"/><path d="M40 130l40-20 50 10-40 20-50-10z" vector-effect="non-scaling-stroke" stroke-width="4" stroke="#000"/></g><g style="isolation:isolate" fill="#FFF" stroke-width="4" stroke="#000" stroke-miterlimit="3"><path d="M240 109v111l-40 20V130l40-21z" vector-effect="non-scaling-stroke" stroke-linejoin="round" stroke-linecap="round"/><path d="M150 120l40-20 50 9-40 21-50-10z" vector-effect="non-scaling-stroke" stroke-linecap="square"/></g><path d="M80 124V30l50 10v136l20 4v-60l50 10v110l-50-10-20-4v44l-50-10v-86l-70-14V70l50 10v40l20 4z" fill="#fff"/><path d="M80 124V30l50 10v136l20 4v-60l50 10v110l-50-10-20-4v44l-50-10v-86l-70-14V70l50 10v40l20 4z" fill="none" stroke="#fe715d" stroke-width="4" stroke-linecap="round" stroke-linejoin="round" stroke-miterlimit="3"/></svg>