<svg xmlns="http://www.w3.org/2000/svg" style="isolation:isolate" width="400" height="100"><path d="M259.9 77.84q-7.2 0-10.26-4.38-3.06-4.38-3.06-12.42V44.72q0-8.22 3.33-12.54 3.33-4.32 11.25-4.32 7.62 0 10.92 3.72t3.3 10.5v3.12h-10.5v-3.96q0-2.88-.66-4.35-.66-1.47-2.94-1.47-2.34 0-3.03 1.62t-.69 4.5v22.5q0 2.88.87 4.53.87 1.65 3.15 1.65 4.2 0 4.2-6.3v-5.7h-4.38v-6.3h14.04v25.2h-7.08l-.6-4.02q-2.28 4.74-7.86 4.74zm22.26-.72v-48.6H304v7.32h-11.1V47.9h8.46v7.44h-8.46v14.52h11.22v7.26h-21.96zm24.48 0l9.18-48.6h12.24l9.06 48.6h-9.9l-1.62-10.26h-7.14l-1.68 10.26h-10.14zm12.78-16.68h5.16L322 41.48l-2.58 18.96zm22.62 16.68v-48.6h13.38q7.98 0 12.06 2.82t4.08 10.02q0 4.86-1.26 7.74t-4.68 4.5l6.66 23.52h-11.1l-5.34-21.78h-3.06v21.78h-10.74zm10.74-27.96h3q3.24 0 4.53-1.71t1.29-5.13q0-3.3-1.2-4.95-1.2-1.65-4.14-1.65h-3.48v13.44zM41.08 77.84q-7.92 0-11.25-4.17T26.5 61.64V44.12q0-8.04 3.3-12.15 3.3-4.11 11.28-4.11 7.62 0 10.8 3.66 3.18 3.66 3.18 10.38v4.2h-10.5v-4.86q0-2.82-.6-4.32-.6-1.5-2.88-1.5t-3 1.59q-.72 1.59-.72 4.41v22.86q0 2.88.75 4.41.75 1.53 2.97 1.53t2.85-1.53q.63-1.53.63-4.41v-5.1h10.5v4.2q0 6.84-3.18 10.65-3.18 3.81-10.8 3.81zm17.52-.72l9.18-48.6h12.24l9.06 48.6h-9.9l-1.62-10.26h-7.14l-1.68 10.26H58.6zm12.78-16.68h5.16l-2.58-18.96-2.58 18.96zm22.44 16.68l.84-48.6h11.52l5.34 28.26 5.76-28.26h11.1l.84 48.6h-7.62l-.9-32.34-5.64 32.34h-6.78l-6-32.58-.72 32.58h-7.74zm42.42 0v-48.6h12.3q6.3 0 9.84 1.56t5.01 4.89q1.47 3.33 1.47 8.91v17.64q0 5.64-1.47 9-1.47 3.36-4.98 4.98-3.51 1.62-9.75 1.62h-12.42zm10.74-7.44h1.68q2.34 0 3.45-.69 1.11-.69 1.41-1.98.3-1.29.3-3.81V42.02q0-2.34-.33-3.57t-1.44-1.83q-1.11-.6-3.45-.6h-1.62v33.66zm24.42 7.44v-48.6h21.84v7.32h-11.1V47.9h8.46v7.44h-8.46v14.52h11.22v7.26H171.4zm26.82 0v-48.6h7.56l9.96 23.4v-23.4h8.88v48.6h-7.26l-9.96-25.2v25.2h-9.18z" fill-rule="evenodd"/></svg>