<?xml version="1.0" standalone="no"?><!-- Generator: Gravit.io --><svg xmlns="http://www.w3.org/2000/svg" xmlns:xlink="http://www.w3.org/1999/xlink" style="isolation:isolate" viewBox="0 0 250 280" width="250" height="280"><g style="isolation:isolate" id="left"><path d=" M 100 60 L 100 150 L 60 170 L 60 80 L 100 60 Z " fill="rgb(255,255,255)" vector-effect="non-scaling-stroke" stroke-width="4" stroke="rgb(254,113,93)" stroke-linejoin="round" stroke-linecap="round" stroke-miterlimit="3"/><path d=" M 10 70 L 50 50 L 100 60 L 60 80 L 10 70 Z " fill="rgb(255,255,255)" vector-effect="non-scaling-stroke" stroke-width="4" stroke="rgb(254,113,93)" stroke-linejoin="round" stroke-linecap="round" stroke-miterlimit="3"/></g><g style="isolation:isolate" id="main"><path d=" M 170 20 L 170 250 L 130 270 L 130 40 L 170 20 Z " fill="rgb(255,255,255)" vector-effect="non-scaling-stroke" stroke-width="4" stroke="rgb(254,113,93)" stroke-linejoin="round" stroke-linecap="round" stroke-miterlimit="3"/><path d=" M 80 30 L 120 10 L 170 20 L 130 40 L 80 30 Z " fill="rgb(255,255,255)" vector-effect="non-scaling-stroke" stroke-width="4" stroke="rgb(254,113,93)" stroke-linejoin="round" stroke-linecap="round" stroke-miterlimit="3"/></g><g style="isolation:isolate" id="bridges"><path d=" M 120 180 L 160 160 L 210 170 L 170 190 L 120 180 Z " fill="rgb(255,255,255)" vector-effect="non-scaling-stroke" stroke-width="4.3" stroke="rgb(254,113,93)" stroke-linejoin="round" stroke-linecap="round" stroke-miterlimit="3"/><path d=" M 40 130 L 80 110 L 130 120 L 90 140 L 40 130 Z " fill="rgb(255,255,255)" vector-effect="non-scaling-stroke" stroke-width="4" stroke="rgb(254,113,93)" stroke-linejoin="round" stroke-linecap="round" stroke-miterlimit="3"/></g><g style="isolation:isolate" id="right"><path d=" M 240 110 L 240 220 L 200 240 L 200 130 L 240 110 Z " fill="rgb(255,255,255)" vector-effect="non-scaling-stroke" stroke-width="4" stroke="rgb(254,113,93)" stroke-linejoin="round" stroke-linecap="round" stroke-miterlimit="3"/><path d=" M 150 120 L 190 100 L 240 110 L 200 130 L 150 120 Z " fill="rgb(255,255,255)" vector-effect="non-scaling-stroke" stroke-width="4" stroke="rgb(254,113,93)" stroke-linejoin="round" stroke-linecap="round" stroke-miterlimit="3"/></g><g style="isolation:isolate" id="Layer 4"><path d="M 80 124 L 80 30 L 130 40 L 130 176 L 150 180 L 150 120 L 200 130 L 200 190 L 200 239 L 200 240 L 130 226 L 130 270 L 80 260 L 80 174 L 10 160 L 10 70 L 60 80 L 60 120 L 80 124 Z" style="stroke:none;fill:#FFFFFF;stroke-miterlimit:10;"/><path d="M 80 124 L 80 30 L 130 40 L 130 176 L 150 180 L 150 120 L 200 130 L 200 190 L 200 239 L 200 240 L 130 226 L 130 270 L 80 260 L 80 174 L 10 160 L 10 70 L 60 80 L 60 120 L 80 124 Z" style="fill:none;stroke:#FE715D;stroke-width:4;stroke-linecap:round;stroke-linejoin:round;stroke-miterlimit:3;"/></g></svg>