<?xml version="1.0" encoding="UTF-8" standalone="no"?>
<!-- Created with Inkscape (http://www.inkscape.org/) -->

<svg
   xmlns:dc="http://purl.org/dc/elements/1.1/"
   xmlns:cc="http://creativecommons.org/ns#"
   xmlns:rdf="http://www.w3.org/1999/02/22-rdf-syntax-ns#"
   xmlns:svg="http://www.w3.org/2000/svg"
   xmlns="http://www.w3.org/2000/svg"
   xmlns:sodipodi="http://sodipodi.sourceforge.net/DTD/sodipodi-0.dtd"
   xmlns:inkscape="http://www.inkscape.org/namespaces/inkscape"
   width="126.08253mm"
   height="23.934204mm"
   viewBox="0 0 126.08253 23.934204"
   version="1.1"
   id="svg102"
   inkscape:version="0.92.3 (unknown)"
   sodipodi:docname="drawing.svg">
  <defs
     id="defs96" />
  <sodipodi:namedview
     id="base"
     pagecolor="#ffffff"
     bordercolor="#666666"
     borderopacity="1.0"
     inkscape:pageopacity="0.0"
     inkscape:pageshadow="2"
     inkscape:zoom="0.35"
     inkscape:cx="241.12334"
     inkscape:cy="-163.34144"
     inkscape:document-units="mm"
     inkscape:current-layer="layer1"
     showgrid="false"
     fit-margin-top="0"
     fit-margin-left="0"
     fit-margin-right="0"
     fit-margin-bottom="0"
     inkscape:window-width="1853"
     inkscape:window-height="1025"
     inkscape:window-x="67"
     inkscape:window-y="27"
     inkscape:window-maximized="1" />
  <metadata
     id="metadata99">
    <rdf:RDF>
      <cc:Work
         rdf:about="">
        <dc:format>image/svg+xml</dc:format>
        <dc:type
           rdf:resource="http://purl.org/dc/dcmitype/StillImage" />
        <dc:title></dc:title>
      </cc:Work>
    </rdf:RDF>
  </metadata>
  <g
     inkscape:label="Layer 1"
     inkscape:groupmode="layer"
     id="layer1"
     transform="translate(-42.036116,-81.681705)">
    <path
       d="m 47.429206,89.674591 c -0.565962,0.872067 -0.774735,1.918758 -0.774735,2.96545 0,2.412647 1.192,4.597752 3.754472,4.597752 2.473325,0 3.694678,-2.01048 3.694678,-4.394552 0,-1.685925 -0.417019,-2.994378 -1.281184,-3.808236 -0.953452,-0.872067 -2.026108,-0.900994 -2.68164,-0.843139 -1.311063,0.08749 -2.085799,0.523522 -2.711591,1.482725 z m 11.322932,2.993672 c 0,3.933119 -2.264657,8.193967 -8.343195,8.193967 -4.380089,0 -8.372827,-2.443337 -8.372827,-8.193967 0,-4.767791 3.009512,-8.432447 8.968845,-8.104363 6.346684,0.357364 7.747177,5.273322 7.747177,8.104363"
       style="fill:#231f20;fill-opacity:1;fill-rule:nonzero;stroke:none;stroke-width:0.03527778"
       id="path43"
       inkscape:connector-curvature="0" />
    <path
       d="m 99.433865,86.321439 c 0.44697,-0.476956 0.745075,-0.83432 1.549405,-1.22167 0.71509,-0.298097 1.72826,-0.535869 2.83069,-0.535869 0.92393,0 1.96674,0.148519 2.77107,0.595489 1.63901,0.863952 2.05634,2.26448 2.05634,4.677833 v 10.637658 h -4.55894 v -8.760175 c 0,-1.400528 -0.03,-1.907117 -0.20885,-2.3241 -0.35771,-0.834319 -1.16205,-1.192036 -2.05563,-1.192036 -2.413715,0 -2.413715,1.93675 -2.413715,3.8735 v 8.402811 H 94.815657 V 84.950897 h 4.618208 v 1.370542"
       style="fill:#231f20;fill-opacity:1;fill-rule:nonzero;stroke:none;stroke-width:0.03527778"
       id="path45"
       inkscape:connector-curvature="0" />
    <path
       d="M 88.077601,90.706466 C 87.988351,90.051005 87.868757,89.1867 87.213297,88.501605 86.647088,87.935397 85.783134,87.6373 84.978449,87.6373 c -1.102432,0 -1.876777,0.536575 -2.323748,1.013177 -0.625827,0.685448 -0.775052,1.400528 -0.923925,2.055989 z m 4.558596,5.75063 c -0.420159,0.885472 -1.773415,4.405134 -7.747,4.405134 -4.618567,0 -7.86624,-2.825748 -7.86624,-7.920917 0,-3.754613 1.847498,-8.377413 7.985477,-8.377413 0.923925,0 3.60539,-0.114653 5.601758,2.030589 2.026005,2.175227 2.145242,5.214407 2.204863,6.972299 H 81.701142 c -0.02998,1.93675 1.072446,3.873853 3.545771,3.873853 2.502959,0 3.366911,-1.639006 3.933119,-2.741436 l 3.456165,1.757891"
       style="fill:#231f20;fill-opacity:1;fill-rule:nonzero;stroke:none;stroke-width:0.03527778"
       id="path47"
       inkscape:connector-curvature="0" />
    <path
       d="m 156.43818,88.173522 h 3.03918 v -3.222625 h -3.00955 v -3.269192 h -4.5586 v 3.269192 h -0.72319 l -2.08703,3.222625 h 2.81022 v 7.385049 c 0,1.489428 0.0296,2.591858 0.65511,3.516136 0.98355,1.429813 2.71181,1.519413 4.29119,1.519413 0.83432,0 1.42981,-0.0896 2.41335,-0.23848 v -3.575399 l -1.63865,0.05927 c -1.22167,0 -1.22167,-0.804333 -1.19203,-1.757891 v -6.908098"
       style="fill:#231f20;fill-opacity:1;fill-rule:nonzero;stroke:none;stroke-width:0.03527778"
       id="path49"
       inkscape:connector-curvature="0" />
    <path
       d="m 110.92455,81.681705 h 4.5586 v 3.269192 h 4.73816 l -2.08669,3.222625 h -2.68111 v 6.908094 c -0.03,0.953558 -0.03,1.757891 1.19204,1.757891 l 1.63901,-0.05927 v 3.575403 c -0.9839,0.14887 -1.57939,0.23848 -2.41371,0.23848 -1.57939,0 -3.30764,-0.0896 -4.29084,-1.519417 -0.62582,-0.924278 -0.65546,-2.026708 -0.65546,-3.516136 V 81.681705"
       style="fill:#231f20;fill-opacity:1;fill-rule:nonzero;stroke:none;stroke-width:0.03527778"
       id="path51"
       inkscape:connector-curvature="0" />
    <path
       d="m 168.11865,88.173875 h -0.55316 l 0.0194,-1.99002 0.0289,-0.6604 -0.15558,0.543631 -0.66005,2.106789 h -0.50517 l -0.65018,-2.106789 -0.16509,-0.534106 0.0388,0.650875 0.0194,1.99002 h -0.5436 v -3.222978 h 0.76693 l 0.8061,2.543528 0.78599,-2.543528 h 0.76729 z m -4.41784,0 h -0.56303 v -2.747786 h -1.03858 v -0.475192 h 2.62114 v 0.475192 h -1.01953 v 2.747786"
       style="fill:#231f20;fill-opacity:1;fill-rule:nonzero;stroke:none;stroke-width:0.03527778"
       id="path53"
       inkscape:connector-curvature="0" />
    <path
       d="m 130.28606,90.706466 c -0.0896,-0.655461 -0.20885,-1.519766 -0.86431,-2.204861 -0.56621,-0.566208 -1.43016,-0.864305 -2.23449,-0.864305 -1.10244,0 -1.87714,0.536575 -2.3241,1.013177 -0.62583,0.685448 -0.7747,1.400528 -0.92393,2.055989 z m 4.29895,5.764389 -0.87313,1.348669 c -0.81703,1.198739 -2.35479,3.042706 -6.75922,3.042706 -4.61857,0 -7.72125,-2.825748 -7.72125,-7.920917 0,-3.754613 1.84715,-8.377413 7.98548,-8.377413 0.92357,0 3.60539,-0.114653 5.60176,2.030589 2.02635,2.175227 2.14524,5.214407 2.20521,6.972299 H 123.9096 c -0.03,1.93675 0.92745,3.873853 3.40077,3.873853 2.50261,0 3.22157,-1.639006 3.78778,-2.741436 l 3.48686,1.77165"
       style="fill:#231f20;fill-opacity:1;fill-rule:nonzero;stroke:none;stroke-width:0.03527778"
       id="path55"
       inkscape:connector-curvature="0" />
    <path
       d="m 150.20389,100.47665 -5.69983,-8.172101 4.75332,-7.353652 h -5.21758 l -2.24367,3.471333 -2.42146,-3.471333 h -5.21759 l 5.12939,7.353652 -5.28249,8.172101 h 5.21758 l 2.77319,-4.289429 2.99191,4.289429 h 5.21723"
       style="fill:#231f20;fill-opacity:1;fill-rule:nonzero;stroke:none;stroke-width:0.03527778"
       id="path57"
       inkscape:connector-curvature="0" />
    <path
       d="m 68.166824,88.145652 c -0.834319,0 -1.698272,0.333023 -2.353733,1.164873 -0.655814,0.804333 -0.953559,2.052108 -0.953559,3.411007 0,1.830211 0.536575,2.939345 1.102431,3.577167 0.529167,0.5969 1.310922,0.939094 2.055989,0.939094 2.234847,0 3.218038,-2.35338 3.218038,-4.627386 0,-1.913466 -0.566208,-3.937705 -2.443339,-4.381499 -0.208492,-0.05539 -0.417335,-0.08326 -0.625827,-0.08326 z m -3.0988,-1.824213 c 0.438856,-0.66675 1.846086,-1.757892 4.080933,-1.757892 3.813881,0 6.496756,2.890308 6.496756,8.07473 0,3.188053 -1.160991,8.223953 -6.688314,8.223953 -1.98755,0 -3.529189,-1.105603 -3.919361,-1.758242 v 6.511922 h -4.58858 V 84.950897 h 4.618566 v 1.370542"
       style="fill:#231f20;fill-opacity:1;fill-rule:nonzero;stroke:none;stroke-width:0.03527778"
       id="path59"
       inkscape:connector-curvature="0" />
  </g>
</svg>
