<?xml version="1.0" encoding="UTF-8" standalone="no"?>
<!-- Created with Inkscape (http://www.inkscape.org/) -->

<svg
   xmlns:dc="http://purl.org/dc/elements/1.1/"
   xmlns:cc="http://creativecommons.org/ns#"
   xmlns:rdf="http://www.w3.org/1999/02/22-rdf-syntax-ns#"
   xmlns:svg="http://www.w3.org/2000/svg"
   xmlns="http://www.w3.org/2000/svg"
   xmlns:sodipodi="http://sodipodi.sourceforge.net/DTD/sodipodi-0.dtd"
   xmlns:inkscape="http://www.inkscape.org/namespaces/inkscape"
   version="1.1"
   id="svg815"
   xml:space="preserve"
   width="600"
   height="117.10667"
   viewBox="0 0 600 117.10667"
   sodipodi:docname="logo-green.svg"
   inkscape:version="0.92.2 (5c3e80d, 2017-08-06)"><metadata
     id="metadata821"><rdf:RDF><cc:Work
         rdf:about=""><dc:format>image/svg+xml</dc:format><dc:type
           rdf:resource="http://purl.org/dc/dcmitype/StillImage" /><dc:title></dc:title></cc:Work></rdf:RDF></metadata><defs
     id="defs819" /><sodipodi:namedview
     pagecolor="#ffffff"
     bordercolor="#666666"
     borderopacity="1"
     objecttolerance="10"
     gridtolerance="10"
     guidetolerance="10"
     inkscape:pageopacity="0"
     inkscape:pageshadow="2"
     inkscape:window-width="1920"
     inkscape:window-height="1021"
     id="namedview817"
     showgrid="false"
     inkscape:zoom="0.90575768"
     inkscape:cx="235.41578"
     inkscape:cy="106.39707"
     inkscape:window-x="0"
     inkscape:window-y="27"
     inkscape:window-maximized="1"
     inkscape:current-layer="g823" /><g
     id="g823"
     inkscape:groupmode="layer"
     inkscape:label="ink_ext_XXXXXX"
     transform="matrix(1.3333333,0,0,-1.3333333,0,117.10667)"><path
       inkscape:connector-curvature="0"
       id="path837"
       style="fill:#22eaaf;fill-opacity:0.94117647;fill-rule:nonzero;stroke:none;stroke-width:0.1"
       d="m 234.013,9.15391 -1.17,-0.94922 c -0.678,1.47461 -1.491,2.05121 -3.136,2.05121 -1.78,0 -2.763,-0.8309 -2.763,-1.89848 0,-1.05117 0.746,-1.57656 3.102,-1.98359 3.001,-0.5086 4.069,-1.45781 4.069,-3.18711 C 234.115,1.27109 232.403,0 229.792,0 c -2.373,0 -3.933,1.03398 -4.713,2.42383 l 1.17,0.94961 c 0.593,-1.28867 1.746,-2.10235 3.577,-2.10235 1.729,0 2.882,0.64454 2.882,1.84805 0,0.96641 -0.729,1.52539 -3.086,1.93242 -3.017,0.52578 -4.102,1.44102 -4.102,3.15313 0,1.79691 1.577,3.32261 4.17,3.32261 2.052,0 3.458,-0.8136 4.323,-2.37339" /><path
       inkscape:connector-curvature="0"
       id="path839"
       style="fill:#22eaaf;fill-opacity:0.94117647;fill-rule:nonzero;stroke:none;stroke-width:0.1"
       d="m 247.708,10.0863 h -3.899 V 0.169531 h -1.356 V 10.0863 h -3.899 v 1.2715 h 9.154 v -1.2715" /><path
       inkscape:connector-curvature="0"
       id="path841"
       style="fill:#22eaaf;fill-opacity:0.94117647;fill-rule:nonzero;stroke:none;stroke-width:0.1"
       d="m 254.825,6.08555 h 2.865 c 1.594,0 2.373,0.66133 2.373,2.00039 0,1.33906 -0.779,2.00036 -2.373,2.00036 h -2.865 z m 2.679,-1.2711 h -2.679 V 0.169531 h -1.356 V 11.3578 h 4.238 c 2.272,0 3.78,-1.2547 3.78,-3.27186 0,-1.59336 -0.949,-2.71211 -2.475,-3.11914 l 3.153,-4.797269 h -1.61 l -3.051,4.644919" /><path
       inkscape:connector-curvature="0"
       id="path843"
       style="fill:#22eaaf;fill-opacity:0.94117647;fill-rule:nonzero;stroke:none;stroke-width:0.1"
       d="m 273.928,4.54297 -1.509,3.9668 -0.525,1.55933 h -0.034 l -0.492,-1.50855 -1.526,-4.01758 z m 0.491,-1.27109 h -5.068 l -1.187,-3.102349 h -1.424 l 4.357,11.188269 h 1.61 l 4.34,-11.188269 h -1.441 l -1.187,3.102349" /><path
       inkscape:connector-curvature="0"
       id="path845"
       style="fill:#22eaaf;fill-opacity:0.94117647;fill-rule:nonzero;stroke:none;stroke-width:0.1"
       d="m 290.487,9.15391 -1.169,-0.94922 c -0.678,1.47461 -1.492,2.05121 -3.136,2.05121 -1.78,0 -2.764,-0.8309 -2.764,-1.89848 0,-1.05117 0.746,-1.57656 3.103,-1.98359 3,-0.5086 4.068,-1.45781 4.068,-3.18711 C 290.589,1.27109 288.877,0 286.266,0 c -2.373,0 -3.932,1.03398 -4.712,2.42383 l 1.169,0.94961 c 0.594,-1.28867 1.746,-2.10235 3.577,-2.10235 1.729,0 2.882,0.64454 2.882,1.84805 0,0.96641 -0.729,1.52539 -3.085,1.93242 -3.018,0.52578 -4.102,1.44102 -4.102,3.15313 0,1.79691 1.576,3.32261 4.17,3.32261 2.051,0 3.458,-0.8136 4.322,-2.37339" /><path
       inkscape:connector-curvature="0"
       id="path847"
       style="fill:#22eaaf;fill-opacity:0.94117647;fill-rule:nonzero;stroke:none;stroke-width:0.1"
       d="m 307.284,0.169531 h -0.932 V 8.20469 l 0.101,2.23751 -4,-10.272669 h -0.865 L 297.605,10.4422 h -0.017 L 297.69,8.20469 V 0.169531 h -0.916 V 11.3578 h 1.458 l 3.17,-8.08592 0.61,-1.96641 h 0.017 l 0.627,1.94922 3.153,8.10311 h 1.475 V 0.169531" /><path
       inkscape:connector-curvature="0"
       id="path849"
       style="fill:#22eaaf;fill-opacity:0.94117647;fill-rule:nonzero;stroke:none;stroke-width:0.1"
       d="m 314.537,5.76367 c 0,-3.01758 1.593,-4.865232 4.153,-4.865232 2.56,0 4.153,1.847652 4.153,4.865232 0,3.01719 -1.593,4.86483 -4.153,4.86483 -2.56,0 -4.153,-1.84764 -4.153,-4.86483 z m 9.306,0 C 323.843,2.22031 321.86,0 318.69,0 c -3.17,0 -5.154,2.22031 -5.154,5.76367 0,3.54297 1.984,5.76363 5.154,5.76363 3.17,0 5.153,-2.22066 5.153,-5.76363" /><path
       inkscape:connector-curvature="0"
       id="path851"
       style="fill:#22eaaf;fill-opacity:0.94117647;fill-rule:nonzero;stroke:none;stroke-width:0.1"
       d="m 331.062,5.86523 h 3.187 c 1.763,0 2.695,0.81368 2.695,2.30547 0,1.4918 -0.932,2.2887 -2.695,2.2887 h -3.187 z m 3.187,-0.89843 h -3.187 V 0.169531 h -0.966 V 11.3578 h 4.17 c 2.238,0 3.695,-1.2207 3.695,-3.1871 0,-1.64414 -1,-2.76328 -2.61,-3.08515 l 3.221,-4.916019 h -1.136 L 334.249,4.9668" /><path
       inkscape:connector-curvature="0"
       id="path853"
       style="fill:#22eaaf;fill-opacity:0.94117647;fill-rule:nonzero;stroke:none;stroke-width:0.1"
       d="M 352.385,1.06797 V 0.169531 h -7.95 V 11.3578 h 7.679 v -0.8984 h -6.712 V 6.30586 h 5.288 V 5.40742 h -5.288 V 1.06797 h 6.983" /><path
       inkscape:connector-curvature="0"
       id="path855"
       style="fill:#22eaaf;fill-opacity:0.94117647;fill-rule:nonzero;stroke:none;stroke-width:0.1"
       d="m 203.81,5.49063 h 1.911 c 1.033,0 1.63,0.40742 1.63,1.13203 0,0.68867 -0.597,1.09609 -1.63,1.09609 h -1.911 z m 0,2.91679 h 1.911 c 0.852,0 1.35,0.3711 1.35,1.03242 0,0.64296 -0.498,1.00546 -1.35,1.00546 h -1.911 z m 1.947,2.73558 c 1.278,0 2.048,-0.5887 2.048,-1.58558 0,-0.74258 -0.426,-1.27695 -1.169,-1.43086 0.915,-0.13593 1.449,-0.73398 1.449,-1.60351 0,-1.07813 -0.851,-1.7211 -2.282,-1.7211 h -2.718 V 11.143 h 2.672" /><path
       inkscape:connector-curvature="0"
       id="path857"
       style="fill:#22eaaf;fill-opacity:0.94117647;fill-rule:nonzero;stroke:none;stroke-width:0.1"
       d="m 213.398,4.80195 h -0.715 v 2.14688 l -2.455,4.19417 h 0.752 l 2.056,-3.30667 2.029,3.30667 h 0.743 l -2.41,-4.16683 V 4.80195" /><path
       inkscape:connector-curvature="0"
       id="path859"
       style="fill:#22eaaf;fill-opacity:0.94117647;fill-rule:nonzero;stroke:none;stroke-width:0.1"
       d="m 25.1633,54.3883 c -0.2742,-0.4387 -0.5617,-0.768 -0.8637,-0.9871 -0.3016,-0.2192 -0.6898,-0.3289 -1.1648,-0.3289 -0.4203,0 -0.8731,0.1324 -1.3571,0.3972 -0.4843,0.2649 -1.032,0.5621 -1.6445,0.891 -0.6121,0.329 -1.3113,0.6258 -2.0965,0.8907 -0.7863,0.2648 -1.6816,0.3976 -2.6867,0.3976 -1.7363,0 -3.0285,-0.3703 -3.8781,-1.1097 -0.8504,-0.7403 -1.275,-1.7411 -1.275,-3.0016 0,-0.8047 0.2558,-1.4711 0.7676,-2.0012 0.5113,-0.53 1.1832,-0.9867 2.0144,-1.3703 0.8316,-0.384 1.7816,-0.7359 2.8508,-1.0558 1.0691,-0.32 2.1609,-0.6762 3.2758,-1.0688 1.114,-0.393 2.2066,-0.8547 3.2754,-1.3844 1.0695,-0.53 2.0191,-1.2058 2.8511,-2.0281 0.8309,-0.8219 1.5028,-1.823 2.0145,-3.0016 0.5113,-1.1789 0.7676,-2.5996 0.7676,-4.2628 0,-1.8457 -0.3203,-3.5723 -0.9594,-5.1805 -0.6402,-1.6082 -1.5676,-3.011 -2.782,-4.207 -1.2161,-1.1973 -2.7141,-2.1387 -4.4957,-2.8243 -1.7821,-0.6847 -3.8059,-1.0273 -6.0715,-1.0273 -1.243,0 -2.5082,0.1277 -3.79612,0.3836 C 8.6207,22.7648 7.37344,23.1254 6.16758,23.5922 4.96133,24.0578 3.82813,24.6105 2.76836,25.2504 1.70859,25.8898 0.785547,26.602 0,27.3883 l 2.74102,4.3308 c 0.21953,0.3106 0.50703,0.5711 0.86328,0.7813 0.35664,0.2098 0.74414,0.3152 1.16523,0.3152 0.54844,0 1.10078,-0.1734 1.6582,-0.5215 0.55704,-0.3464 1.1879,-0.7304 1.8918,-1.1503 0.70274,-0.4208 1.51133,-0.8047 2.42537,-1.1512 0.9137,-0.3477 1.9918,-0.5215 3.2348,-0.5215 1.6808,0 2.9875,0.3699 3.9195,1.1102 0.9324,0.7402 1.3981,1.914 1.3981,3.5226 0,0.9316 -0.2563,1.6902 -0.7676,2.2754 -0.5117,0.584 -1.1836,1.0684 -2.0145,1.452 -0.832,0.3839 -1.7773,0.7218 -2.8371,1.0148 -1.0597,0.2922 -2.1472,0.616 -3.2621,0.9727 -1.11483,0.3566 -2.20194,0.7949 -3.2617,1.3164 -1.06016,0.5203 -2.00586,1.2054 -2.83711,2.0554 -0.83203,0.8496 -1.50313,1.9094 -2.01485,3.1797 -0.51171,1.2695 -0.76718,2.8371 -0.76718,4.7008 0,1.4984 0.30117,2.9605 0.90429,4.3859 0.60313,1.425 1.48907,2.6953 2.6586,3.8102 1.16953,1.1144 2.60468,2.0051 4.3039,2.6726 1.69965,0.6668 3.64535,1.0004 5.83825,1.0004 1.2243,0 2.4164,-0.0961 3.5774,-0.2879 1.1605,-0.1914 2.2613,-0.4753 3.3031,-0.8496 1.0414,-0.3746 2.0145,-0.8222 2.9191,-1.3433 0.9043,-0.5207 1.7129,-1.1098 2.4258,-1.7676 l -2.3023,-4.3035" /><path
       inkscape:connector-curvature="0"
       id="path861"
       style="fill:#22eaaf;fill-opacity:0.94117647;fill-rule:nonzero;stroke:none;stroke-width:0.1"
       d="m 65.0727,54.3883 c -0.2739,-0.4387 -0.5614,-0.768 -0.8633,-0.9871 -0.3016,-0.2192 -0.6899,-0.3289 -1.1649,-0.3289 -0.4207,0 -0.873,0.1324 -1.357,0.3972 -0.4844,0.2649 -1.032,0.5621 -1.6445,0.891 -0.6121,0.329 -1.3117,0.6258 -2.0965,0.8907 -0.7863,0.2648 -1.682,0.3976 -2.6867,0.3976 -1.7364,0 -3.0289,-0.3703 -3.8785,-1.1097 -0.85,-0.7403 -1.275,-1.7411 -1.275,-3.0016 0,-0.8047 0.2558,-1.4711 0.7675,-2.0012 0.5114,-0.53 1.1832,-0.9867 2.0149,-1.3703 0.8316,-0.384 1.7816,-0.7359 2.8508,-1.0558 1.0691,-0.32 2.1609,-0.6762 3.2757,-1.0688 1.1141,-0.393 2.2067,-0.8547 3.2754,-1.3844 1.0692,-0.53 2.0192,-1.2058 2.8512,-2.0281 0.8309,-0.8219 1.5027,-1.823 2.0145,-3.0016 0.5113,-1.1789 0.7675,-2.5996 0.7675,-4.2628 0,-1.8457 -0.3203,-3.5723 -0.9593,-5.1805 -0.6403,-1.6082 -1.5676,-3.011 -2.7825,-4.207 -1.2156,-1.1973 -2.7136,-2.1387 -4.4957,-2.8243 -1.7816,-0.6847 -3.8054,-1.0273 -6.0711,-1.0273 -1.2429,0 -2.5082,0.1277 -3.7964,0.3836 -1.2883,0.2558 -2.5356,0.6164 -3.7418,1.0832 -1.2059,0.4656 -2.3391,1.0183 -3.3989,1.6582 -1.0597,0.6394 -1.9828,1.3516 -2.7683,2.1379 l 2.741,4.3308 c 0.2191,0.3106 0.507,0.5711 0.8633,0.7813 0.3566,0.2098 0.7441,0.3152 1.1652,0.3152 0.548,0 1.1004,-0.1734 1.6582,-0.5215 0.557,-0.3464 1.1879,-0.7304 1.8914,-1.1503 0.7031,-0.4208 1.5117,-0.8047 2.4258,-1.1512 0.9137,-0.3477 1.9918,-0.5215 3.2344,-0.5215 1.6812,0 2.9879,0.3699 3.9199,1.1102 0.932,0.7402 1.398,1.914 1.398,3.5226 0,0.9316 -0.2562,1.6902 -0.7675,2.2754 -0.5118,0.584 -1.1836,1.0684 -2.0149,1.452 -0.8316,0.3839 -1.7769,0.7218 -2.8367,1.0148 -1.0602,0.2922 -2.1477,0.616 -3.2621,0.9727 -1.1149,0.3566 -2.2024,0.7949 -3.2617,1.3164 -1.0602,0.5203 -2.0059,1.2054 -2.8371,2.0554 -0.8321,0.8496 -1.5036,1.9094 -2.0153,3.1797 -0.5113,1.2695 -0.7668,2.8371 -0.7668,4.7008 0,1.4984 0.3012,2.9605 0.9043,4.3859 0.6028,1.425 1.4891,2.6953 2.6586,3.8102 1.1695,1.1144 2.6043,2.0051 4.3035,2.6726 1.7,0.6668 3.6457,1.0004 5.8387,1.0004 1.2238,0 2.4164,-0.0961 3.577,-0.2879 1.1609,-0.1914 2.2617,-0.4753 3.3035,-0.8496 1.0414,-0.3746 2.0144,-0.8222 2.9191,-1.3433 0.9043,-0.5207 1.7129,-1.1098 2.4258,-1.7676 l -2.3027,-4.3035" /><path
       inkscape:connector-curvature="0"
       id="path863"
       style="fill:#22eaaf;fill-opacity:0.94117647;fill-rule:nonzero;stroke:none;stroke-width:0.1"
       d="m 109.67,42.5465 c 0,1.9734 -0.256,3.7551 -0.768,5.3449 -0.511,1.5899 -1.247,2.9375 -2.206,4.0434 -0.96,1.1054 -2.134,1.955 -3.523,2.5492 -1.388,0.5933 -2.969,0.891 -4.7417,0.891 h -6.195 V 29.6906 h 6.195 c 1.7727,0 3.3537,0.2973 4.7417,0.8907 1.389,0.5941 2.563,1.4433 3.523,2.55 0.959,1.1054 1.695,2.4531 2.206,4.0429 0.512,1.5899 0.768,3.3797 0.768,5.3723 z m 9.484,0 c 0,-2.8879 -0.498,-5.5512 -1.494,-7.9906 -0.996,-2.4395 -2.398,-4.5496 -4.207,-6.3321 -1.809,-1.7812 -3.989,-3.1707 -6.538,-4.166 -2.549,-0.9961 -5.377,-1.4941 -8.4837,-1.4941 H 82.9164 V 62.502 h 15.5149 c 3.1067,0 5.9347,-0.5032 8.4837,-1.5079 2.549,-1.0054 4.729,-2.3941 6.538,-4.1668 1.809,-1.7722 3.211,-3.8781 4.207,-6.3183 0.996,-2.4395 1.494,-5.0938 1.494,-7.9625" /><path
       inkscape:connector-curvature="0"
       id="path865"
       style="fill:#22eaaf;fill-opacity:0.94117647;fill-rule:nonzero;stroke:none;stroke-width:0.1"
       d="m 138.026,61.2543 c 0.137,-0.0641 0.287,-0.2055 0.452,-0.4246 l 25.136,-33.6059 c -0.055,0.5481 -0.082,1.0782 -0.082,1.5899 v 32.5367 h 2.439 V 22.5637 h -1.315 c -0.238,0 -0.435,0.041 -0.59,0.123 -0.155,0.0832 -0.306,0.2238 -0.452,0.425 l -25.191,33.6336 c 0.055,-0.548 0.082,-1.0598 0.082,-1.5351 V 22.5637 h -2.466 v 38.7867 h 1.398 c 0.255,0 0.452,-0.032 0.589,-0.0961" /><path
       inkscape:connector-curvature="0"
       id="path867"
       style="fill:#22eaaf;fill-opacity:0.94117647;fill-rule:nonzero;stroke:none;stroke-width:0.1"
       d="m 218.518,41.9711 c 0,2.7043 -0.375,5.1348 -1.124,7.291 -0.75,2.1563 -1.81,3.984 -3.18,5.4824 -1.371,1.4981 -3.015,2.645 -4.934,3.4399 -1.918,0.7949 -4.038,1.1926 -6.359,1.1926 -2.303,0 -4.413,-0.3977 -6.332,-1.1926 -1.919,-0.7949 -3.568,-1.9418 -4.948,-3.4399 -1.38,-1.4984 -2.449,-3.3261 -3.207,-5.4824 -0.758,-2.1562 -1.138,-4.5867 -1.138,-7.291 0,-2.7238 0.38,-5.1582 1.138,-7.3059 0.758,-2.1472 1.827,-3.9695 3.207,-5.4675 1.38,-1.4993 3.029,-2.6418 4.948,-3.4266 1.919,-0.7863 4.029,-1.1789 6.332,-1.1789 2.321,0 4.441,0.3926 6.359,1.1789 1.919,0.7848 3.563,1.9273 4.934,3.4266 1.37,1.498 2.43,3.3203 3.18,5.4675 0.749,2.1477 1.124,4.5821 1.124,7.3059 z m 2.905,0 c 0,-2.9973 -0.448,-5.716 -1.342,-8.1555 -0.896,-2.4394 -2.158,-4.5222 -3.784,-6.2488 -1.627,-1.7277 -3.577,-3.0617 -5.852,-4.002 -2.275,-0.9414 -4.783,-1.4121 -7.524,-1.4121 -2.741,0 -5.245,0.4707 -7.511,1.4121 -2.266,0.9403 -4.212,2.2743 -5.838,4.002 -1.627,1.7266 -2.888,3.8094 -3.783,6.2488 -0.895,2.4395 -1.343,5.1582 -1.343,8.1555 0,2.9781 0.448,5.6875 1.343,8.1269 0.895,2.4399 2.156,4.5231 3.783,6.25 1.626,1.7266 3.572,3.0653 5.838,4.0157 2.266,0.95 4.77,1.4254 7.511,1.4254 2.741,0 5.249,-0.4707 7.524,-1.4118 2.275,-0.9414 4.225,-2.2796 5.852,-4.0156 1.626,-1.7363 2.888,-3.8238 3.784,-6.2637 0.894,-2.4394 1.342,-5.1488 1.342,-8.1269" /><path
       inkscape:connector-curvature="0"
       id="path869"
       style="fill:#22eaaf;fill-opacity:0.94117647;fill-rule:nonzero;stroke:none;stroke-width:0.1"
       d="m 269.666,41.9711 c 0,2.7043 -0.375,5.116 -1.124,7.2363 -0.75,2.1196 -1.809,3.9102 -3.18,5.3727 -1.37,1.4617 -3.015,2.5765 -4.934,3.3441 -1.919,0.7676 -4.039,1.1516 -6.359,1.1516 H 242.72 V 24.8391 h 11.349 c 2.32,0 4.44,0.3839 6.359,1.1515 1.919,0.7676 3.564,1.8817 4.934,3.3438 1.371,1.4621 2.43,3.2527 3.18,5.373 0.749,2.1192 1.124,4.5399 1.124,7.2637 z m 2.906,0 c 0,-2.9973 -0.448,-5.6926 -1.344,-8.0871 -0.895,-2.3934 -2.156,-4.4305 -3.782,-6.1121 -1.627,-1.6817 -3.577,-2.9699 -5.853,-3.8653 -2.275,-0.8957 -4.783,-1.3429 -7.524,-1.3429 h -14.172 v 38.7867 h 14.172 c 2.741,0 5.249,-0.4481 7.524,-1.3434 2.276,-0.8953 4.226,-2.1836 5.853,-3.8644 1.626,-1.6817 2.887,-3.7196 3.782,-6.1129 0.896,-2.3942 1.344,-5.0805 1.344,-8.0586" /><path
       inkscape:connector-curvature="0"
       id="path871"
       style="fill:#22eaaf;fill-opacity:0.94117647;fill-rule:nonzero;stroke:none;stroke-width:0.1"
       d="M 314.345,61.3504 V 59.0203 H 293.923 V 43.341 h 16.995 V 41.0656 H 293.923 V 24.8938 H 314.4 l -0.055,-2.3301 H 291.1 v 38.7867 h 23.245" /><path
       inkscape:connector-curvature="0"
       id="path873"
       style="fill:#22eaaf;fill-opacity:0.94117647;fill-rule:nonzero;stroke:none;stroke-width:0.1"
       d="m 351.267,56.6355 c -0.165,-0.3109 -0.402,-0.4656 -0.713,-0.4656 -0.237,0 -0.544,0.1688 -0.918,0.5067 -0.375,0.3382 -0.882,0.7129 -1.521,1.1242 -0.64,0.4109 -1.44,0.7898 -2.399,1.1375 -0.96,0.3469 -2.142,0.5207 -3.549,0.5207 -1.408,0 -2.646,-0.2012 -3.714,-0.6031 -1.07,-0.402 -1.965,-0.9504 -2.687,-1.6446 -0.723,-0.6949 -1.27,-1.4984 -1.644,-2.4121 -0.375,-0.914 -0.563,-1.8734 -0.563,-2.8777 0,-1.316 0.278,-2.4035 0.836,-3.2625 0.558,-0.8586 1.293,-1.5899 2.207,-2.193 0.913,-0.6027 1.95,-1.1097 3.111,-1.5215 1.161,-0.4109 2.353,-0.8175 3.578,-1.2195 1.223,-0.402 2.416,-0.8453 3.577,-1.3289 1.16,-0.4848 2.197,-1.093 3.11,-1.8234 0.914,-0.7305 1.649,-1.6309 2.207,-2.7004 0.558,-1.0684 0.836,-2.3985 0.836,-3.9883 0,-1.6258 -0.278,-3.1563 -0.836,-4.5906 -0.558,-1.4344 -1.366,-2.6817 -2.426,-3.7414 -1.06,-1.0606 -2.357,-1.8965 -3.892,-2.5086 -1.535,-0.6125 -3.289,-0.918 -5.263,-0.918 -2.559,0 -4.761,0.4519 -6.606,1.3562 -1.846,0.9055 -3.463,2.1426 -4.852,3.7149 l 0.768,1.2062 c 0.219,0.2735 0.474,0.411 0.767,0.411 0.164,0 0.374,-0.1102 0.631,-0.3289 0.255,-0.22 0.565,-0.4895 0.932,-0.8086 0.365,-0.3203 0.803,-0.6672 1.315,-1.0422 0.512,-0.375 1.106,-0.7215 1.782,-1.041 0.676,-0.3203 1.452,-0.5899 2.33,-0.8086 0.877,-0.2196 1.872,-0.3289 2.988,-0.3289 1.535,0 2.905,0.2324 4.111,0.6992 1.206,0.4656 2.225,1.1004 3.057,1.9043 0.831,0.8047 1.466,1.7586 1.905,2.864 0.438,1.1055 0.658,2.2891 0.658,3.55 0,1.3711 -0.279,2.4989 -0.837,3.386 -0.557,0.8855 -1.293,1.6258 -2.206,2.2207 -0.914,0.5926 -1.951,1.0906 -3.111,1.493 -1.16,0.4023 -2.353,0.7949 -3.577,1.1785 -1.225,0.384 -2.417,0.8133 -3.577,1.2886 -1.161,0.475 -2.198,1.0825 -3.112,1.8231 -0.914,0.7398 -1.649,1.6625 -2.206,2.7684 -0.557,1.1054 -0.836,2.4898 -0.836,4.1527 0,1.2973 0.246,2.5496 0.739,3.7555 0.495,1.2058 1.216,2.2703 2.166,3.1933 0.951,0.9223 2.125,1.6625 3.523,2.2203 1.397,0.5571 2.992,0.836 4.783,0.836 2.01,0 3.815,-0.32 5.413,-0.9594 1.6,-0.6399 3.057,-1.6176 4.372,-2.9328 l -0.657,-1.2614" /><path
       style="fill:#7e68f7;fill-opacity:1;stroke:none;stroke-width:1.48960066;stroke-linecap:round;stroke-linejoin:round;stroke-miterlimit:4;stroke-dasharray:none;stroke-opacity:1"
       d="M 414.71729,71.89546 383.5385,40.716666 414.71729,9.537872 445.89608,40.716666 414.71729,71.89546"
       id="path1616-2-6-2"
       inkscape:connector-curvature="0"
       sodipodi:nodetypes="ccccc" /><path
       style="fill:none;stroke:#22eaaa;stroke-width:5.19646549;stroke-linecap:round;stroke-linejoin:round;stroke-miterlimit:4;stroke-dasharray:none;stroke-opacity:1"
       d="M 404.32437,71.89546 373.14558,40.716666 404.32437,9.537872 435.50316,40.716666 404.32437,71.89546"
       id="path1616-2-6"
       inkscape:connector-curvature="0"
       sodipodi:nodetypes="ccccc" /></g></svg>